<svg width="243" height="121" viewBox="0 0 243 121" fill="none" xmlns="http://www.w3.org/2000/svg">
<path d="M125.505 119.232L125.611 118.238L125.505 119.232ZM239.67 42.2462C240.213 42.1446 240.735 42.5024 240.837 43.0452L242.492 51.8918C242.593 52.4346 242.236 52.957 241.693 53.0586C241.15 53.1602 240.628 52.8024 240.526 52.2595L239.055 44.3959L231.191 45.867C230.648 45.9685 230.126 45.6108 230.025 45.0679C229.923 44.525 230.281 44.0026 230.824 43.9011L239.67 42.2462ZM0.962891 0.628906L1.88573 0.243714C2.2834 1.19644 2.67708 2.15081 3.06736 3.10646L2.14158 3.48454L1.21581 3.86261C0.827303 2.9113 0.435582 1.9617 0.0400543 1.0141L0.962891 0.628906ZM4.44249 9.21967L5.37255 8.85226C6.13046 10.7709 6.87961 12.6923 7.6245 14.6134L6.69213 14.9749L5.75976 15.3364C5.01571 13.4175 4.26822 11.5003 3.51243 9.58707L4.44249 9.21967ZM8.92027 20.7388L9.85306 20.3783C10.596 22.3011 11.3393 24.2208 12.0881 26.1356L11.1568 26.4997L10.2255 26.8639C9.47519 24.9453 8.73067 23.0226 7.98748 21.0992L8.92027 20.7388ZM13.4315 32.2456L14.3594 31.8727C15.127 33.7831 15.9045 35.6853 16.697 37.5769L15.7746 37.9633L14.8523 38.3497C14.0554 36.4475 13.2741 34.5361 12.5036 32.6184L13.4315 32.2456ZM18.2165 43.6389L19.1309 43.234C19.963 45.1134 20.8149 46.9791 21.6914 48.8287L20.7878 49.257L19.8841 49.6852C18.9994 47.8185 18.1404 45.937 17.3021 44.0437L18.2165 43.6389ZM23.5191 54.8004L24.4088 54.3439C25.3447 56.1683 26.3103 57.9734 27.3106 59.7568L26.4384 60.246L25.5662 60.7352C24.5529 58.9286 23.5756 57.1015 22.6293 55.2568L23.5191 54.8004ZM29.5729 65.57L30.4233 65.0439C31.498 66.7812 32.6122 68.494 33.7708 70.1796L32.9467 70.7461L32.1226 71.3125C30.9448 69.5989 29.8131 67.8592 28.7224 66.0961L29.5729 65.57ZM36.5789 75.7451L37.3718 75.1357C38.61 76.7466 39.8964 78.3285 41.2358 79.8789L40.4791 80.5326L39.7224 81.1864C38.3571 79.6061 37.0466 77.9946 35.7861 76.3545L36.5789 75.7451ZM44.6544 85.0819L45.3702 84.3836C46.7815 85.8303 48.2476 87.2449 49.7731 88.6248L49.1023 89.3664L48.4314 90.108C46.8744 88.6996 45.3783 87.2561 43.9385 85.7802L44.6544 85.0819ZM53.8122 93.3639L54.4349 92.5814C56.0097 93.8346 57.643 95.0542 59.3386 96.238L58.7662 97.058L58.1937 97.8779C56.4637 96.6701 54.7969 95.4255 53.1895 94.1464L53.8122 93.3639ZM63.9402 100.439L64.4616 99.5857C66.1737 100.632 67.9445 101.645 69.7773 102.622L69.3066 103.505L68.836 104.387C66.9691 103.391 65.1644 102.359 63.4188 101.292L63.9402 100.439ZM74.8366 106.259L75.2578 105.352C77.0735 106.195 78.9454 107.007 80.8763 107.785L80.5024 108.713L80.1285 109.64C78.1663 108.849 76.2627 108.024 74.4153 107.166L74.8366 106.259ZM86.2796 110.881L86.6087 109.936C88.498 110.595 90.4396 111.224 92.4358 111.822L92.1486 112.78L91.8615 113.738C89.8378 113.131 87.8682 112.493 85.9506 111.825L86.2796 110.881ZM98.0949 114.43L98.3429 113.461C100.287 113.959 102.279 114.429 104.321 114.872L104.109 115.849L103.898 116.826C101.832 116.379 99.8154 115.902 97.8469 115.398L98.0949 114.43ZM110.188 117.056L110.366 116.072C112.347 116.431 114.371 116.765 116.441 117.073L116.294 118.062L116.146 119.051C114.056 118.74 112.011 118.402 110.01 118.04L110.188 117.056ZM122.384 118.88L122.504 117.887C123.529 118.01 124.565 118.127 125.611 118.238L125.505 119.232L125.4 120.227C124.344 120.115 123.3 119.997 122.265 119.873L122.384 118.88ZM125.505 119.232L125.611 118.238C126.603 118.343 127.591 118.428 128.575 118.492L128.51 119.49L128.444 120.488C127.434 120.422 126.419 120.335 125.4 120.227L125.505 119.232ZM134.506 119.64L134.491 118.64C136.48 118.61 138.449 118.499 140.4 118.312L140.495 119.308L140.59 120.303C138.588 120.495 136.564 120.609 134.522 120.64L134.506 119.64ZM146.443 118.504L146.271 117.518C148.224 117.177 150.158 116.762 152.069 116.279L152.314 117.248L152.559 118.218C150.601 118.713 148.619 119.138 146.615 119.489L146.443 118.504ZM158.078 115.571L157.766 114.622C159.646 114.003 161.505 113.32 163.34 112.579L163.714 113.507L164.089 114.434C162.214 115.19 160.315 115.888 158.391 116.521L158.078 115.571ZM169.209 111.089L168.779 110.186C170.569 109.334 172.334 108.429 174.074 107.477L174.554 108.354L175.034 109.232C173.262 110.201 171.464 111.123 169.639 111.992L169.209 111.089ZM179.744 105.336L179.22 104.484C180.911 103.442 182.576 102.359 184.215 101.239L184.779 102.065L185.343 102.89C183.68 104.027 181.988 105.128 180.269 106.187L179.744 105.336ZM189.661 98.5689L189.061 97.7685C190.656 96.5742 192.223 95.349 193.761 94.0986L194.392 94.8745L195.023 95.6504C193.465 96.9168 191.877 98.1584 190.26 99.3694L189.661 98.5689ZM198.981 90.9995L198.323 90.2472C199.829 88.928 201.305 87.5888 202.749 86.2355L203.432 86.9652L204.116 87.6948C202.657 89.0627 201.164 90.4171 199.64 91.7518L198.981 90.9995ZM207.748 82.7906L207.042 82.0826C208.465 80.6631 209.853 79.2353 211.205 77.8058L211.931 78.4931L212.658 79.1803C211.293 80.6231 209.891 82.0647 208.454 83.4985L207.748 82.7906ZM216.005 74.0686L215.26 73.4011C216.613 71.8909 217.926 70.3866 219.195 68.8963L219.957 69.5448L220.718 70.1934C219.438 71.6958 218.114 73.2127 216.749 74.736L216.005 74.0686ZM223.789 64.937L223.013 64.3065C224.31 62.7102 225.554 61.1407 226.744 59.6086L227.534 60.222L228.324 60.8354C227.125 62.3782 225.872 63.9592 224.565 65.5676L223.789 64.937ZM231.162 55.4503L230.36 54.8531C231.613 53.1694 232.791 51.5523 233.889 50.0185L234.702 50.6008L235.515 51.1831C234.41 52.7258 233.226 54.3529 231.964 56.0476L231.162 55.4503ZM238.16 45.689L237.338 45.1195C237.937 44.2558 238.5 43.4358 239.029 42.6641L239.854 43.2291L240.679 43.7941C240.149 44.568 239.583 45.3911 238.982 46.2586L238.16 45.689Z" fill="currentColor"/>
</svg>
