<svg width="16" height="17" viewBox="0 0 16 17" fill="none" xmlns="http://www.w3.org/2000/svg">
<path fill-rule="evenodd" clip-rule="evenodd" d="M2.16797 7.44455C2.16797 4.24904 4.78427 1.66748 8.00059 1.66748C11.2169 1.66748 13.8332 4.24904 13.8332 7.44455C13.8332 9.432 12.6742 11.3935 11.4459 12.8214C10.8243 13.5439 10.1645 14.154 9.58257 14.5878C9.29206 14.8043 9.01284 14.9831 8.76081 15.11C8.52454 15.229 8.25472 15.3325 8.00059 15.3325C7.74646 15.3325 7.47664 15.229 7.24037 15.11C6.98834 14.9831 6.70912 14.8043 6.41861 14.5878C5.83666 14.154 5.1769 13.5439 4.5553 12.8214C3.32697 11.3935 2.16797 9.432 2.16797 7.44455ZM7.99996 9.16752C6.89539 9.16752 5.99996 8.27209 5.99996 7.16752C5.99996 6.06295 6.89539 5.16752 7.99996 5.16752C9.10453 5.16752 9.99996 6.06295 9.99996 7.16752C9.99996 8.27209 9.10453 9.16752 7.99996 9.16752Z" fill="currentColor"/>
</svg>
