<svg width="364" height="80" viewBox="0 0 364 80" fill="none" xmlns="http://www.w3.org/2000/svg">
<g>
<path d="M69.0584 76.8961C54.4048 77.1607 46.6029 69.541 40.8141 63.9554C35.6622 59.0217 33.1603 56.7739 27.3512 56.855C21.542 56.9361 19.0646 59.2534 14.0761 64.3487C8.50796 69.9727 0.905851 77.7674 -13.7477 78.032C-28.4013 78.2966 -36.2032 70.6769 -41.992 65.0914C-47.144 60.1577 -49.6459 57.9099 -55.4551 57.991C-61.2642 58.0721 -63.7415 60.3892 -68.73 65.4844C-74.2981 71.1084 -81.9002 78.9034 -96.5539 79.168C-111.208 79.4327 -119.009 71.8127 -124.798 66.2272C-129.95 61.2934 -132.452 59.0459 -138.261 59.127L-138.554 38.6079C-123.9 38.3433 -116.099 45.9631 -110.31 51.5486C-105.158 56.4824 -102.656 58.7302 -96.8467 58.649C-91.0376 58.5679 -88.5602 56.2507 -83.5717 51.1554C-78.0036 45.5314 -70.4015 37.7366 -55.7479 37.472C-41.0943 37.2074 -33.2925 44.8273 -27.5037 50.4128C-22.3517 55.3465 -19.8498 57.5941 -14.0406 57.513C-8.23145 57.4319 -5.75406 55.1147 -0.765492 50.0194C4.8026 44.3954 12.4047 36.6006 27.0583 36.3361C41.7119 36.0714 49.5138 43.6913 55.3026 49.2768C60.4545 54.2105 62.9565 56.4581 68.7656 56.377L69.0584 76.8961Z" fill="currentColor"/>
<path d="M234.477 74.5501C219.823 74.8148 212.021 67.195 206.233 61.6095C201.081 56.6757 198.579 54.428 192.77 54.5091C186.96 54.5903 184.483 56.9074 179.495 62.0028C173.926 67.6267 166.324 75.4215 151.671 75.6861C137.017 75.9507 129.215 68.3309 123.427 62.7453C118.275 57.8117 115.773 55.564 109.963 55.6451C104.154 55.7262 101.677 58.0432 96.6885 63.1385C91.1204 68.7624 83.5183 76.5573 68.8647 76.822C54.2111 77.0866 46.4092 69.4668 40.6204 63.8812C35.4685 58.9475 32.9666 56.6998 27.1574 56.7809L26.8646 36.2619C41.5182 35.9972 49.3199 43.6171 55.1087 49.2027C60.2606 54.1365 62.7626 56.3841 68.5719 56.3029C74.381 56.2218 76.8583 53.9048 81.8468 48.8095C87.4149 43.1855 95.017 35.3907 109.671 35.126C124.324 34.8615 132.126 42.4812 137.915 48.0668C143.067 53.0005 145.569 55.2482 151.378 55.1671C157.187 55.086 159.664 52.7687 164.653 47.6734C170.221 42.0494 177.823 34.2547 192.477 33.9901C207.13 33.7255 214.932 41.3453 220.721 46.9309C225.873 51.8646 228.375 54.1122 234.184 54.0311L234.477 74.5501Z" fill="currentColor"/>
<path d="M398.83 72.2096C384.176 72.4743 376.374 64.8545 370.586 59.2689C365.434 54.3351 362.932 52.0876 357.123 52.1687C351.313 52.2498 348.836 54.5668 343.848 59.6622C338.279 65.2862 330.677 73.0809 316.024 73.3455C301.37 73.6102 293.568 65.9905 287.78 60.4048C282.628 55.4712 280.126 53.2235 274.316 53.3046C268.507 53.3858 266.03 55.7028 261.041 60.7981C255.473 66.4221 247.871 74.2169 233.218 74.4815C218.564 74.7461 210.762 67.1262 204.973 61.5407C199.821 56.607 197.32 54.3594 191.51 54.4404L191.218 33.9214C205.871 33.6568 213.673 41.2767 219.462 46.8623C224.614 51.796 227.116 54.0436 232.925 53.9625C238.734 53.8815 241.211 51.5643 246.2 46.469C251.768 40.845 259.37 33.0502 274.023 32.7856C288.677 32.521 296.479 40.1407 302.268 45.7263C307.42 50.66 309.922 52.9076 315.731 52.8265C321.54 52.7454 324.017 50.4283 329.006 45.333C334.574 39.7091 342.176 31.9143 356.83 31.6497C371.483 31.385 379.285 39.0047 385.074 44.5903C390.226 49.5241 392.728 51.7717 398.537 51.6906L398.83 72.2096Z" fill="currentColor"/>
<path d="M564.248 69.8636C549.595 70.1283 541.793 62.5085 536.004 56.9229C530.852 51.9892 528.35 49.7417 522.541 49.8227C516.732 49.9038 514.255 52.2208 509.266 57.3161C503.698 62.9401 496.096 70.7349 481.442 70.9996C466.789 71.2643 458.987 63.6445 453.198 58.0588C448.046 53.1251 445.544 50.8775 439.735 50.9585C433.926 51.0397 431.448 53.3568 426.46 58.4521C420.892 64.0761 413.29 71.871 398.636 72.1356C383.983 72.4002 376.181 64.7803 370.392 59.1947C365.24 54.261 362.738 52.0134 356.929 52.0945L356.636 31.5755C371.29 31.3109 379.091 38.9307 384.88 44.5162C390.032 49.4499 392.534 51.6977 398.343 51.6166C404.152 51.5355 406.63 49.2183 411.618 44.1229C417.186 38.499 424.789 30.7042 439.442 30.4396C454.096 30.175 461.898 37.7948 467.686 43.3804C472.838 48.314 475.34 50.5616 481.149 50.4805C486.959 50.3995 489.436 48.0823 494.424 42.9871C499.992 37.3631 507.595 29.5683 522.248 29.3036C536.902 29.039 544.704 36.6588 550.493 42.2443C555.644 47.1781 558.147 49.4256 563.956 49.3446L564.248 69.8636Z" fill="currentColor"/>
<path d="M728.302 67.2927C713.648 67.5573 705.846 59.9375 700.057 54.352C694.905 49.4183 692.403 47.1706 686.594 47.2517C680.785 47.3328 678.308 49.65 673.319 54.7452C667.751 60.3692 660.149 68.164 645.495 68.4287C630.842 68.6933 623.04 61.0735 617.251 55.488C612.099 50.5542 609.597 48.3065 603.788 48.3876C597.979 48.4687 595.502 50.7857 590.513 55.8811C584.945 61.505 577.343 69.3 562.689 69.5646C548.036 69.8293 540.234 62.2094 534.445 56.6239C529.293 51.6902 526.791 49.4425 520.982 49.5236L520.689 29.0045C535.343 28.7399 543.145 36.3598 548.933 41.9453C554.085 46.879 556.587 49.1267 562.396 49.0456C568.206 48.9645 570.683 46.6473 575.671 41.5521C581.24 35.9281 588.842 28.1332 603.495 27.8686C618.149 27.6039 625.951 35.2238 631.74 40.8093C636.891 45.7431 639.393 47.9907 645.203 47.9096C651.012 47.8285 653.489 45.5114 658.478 40.4161C664.046 34.7921 671.648 26.9973 686.301 26.7327C700.955 26.468 708.757 34.0879 714.546 39.6734C719.698 44.6072 722.2 46.8548 728.009 46.7737L728.302 67.2927Z" fill="currentColor"/>
<path d="M893.72 64.9467C879.066 65.2114 871.265 57.5916 865.476 52.0061C860.324 47.0723 857.822 44.8247 852.013 44.9058C846.204 44.9868 843.726 47.304 838.738 52.3992C833.17 58.0232 825.567 65.8181 810.914 66.0827C796.26 66.3474 788.459 58.7275 782.67 53.1419C777.518 48.2081 775.016 45.9606 769.207 46.0416C763.397 46.1227 760.92 48.4398 755.932 53.5352C750.364 59.1591 742.761 66.954 728.108 67.2186C713.454 67.4833 705.652 59.8635 699.864 54.2778C694.712 49.3442 692.21 47.0966 686.401 47.1776L686.108 26.6586C700.761 26.3939 708.563 34.0137 714.352 39.5993C719.504 44.533 722.006 46.7807 727.815 46.6996C733.624 46.6186 736.101 44.3014 741.09 39.2061C746.658 33.5822 754.26 25.7873 768.914 25.5226C783.567 25.258 791.369 32.8778 797.158 38.4634C802.31 43.3972 804.812 45.6447 810.621 45.5636C816.43 45.4826 818.908 43.1654 823.896 38.0701C829.464 32.4461 837.066 24.6514 851.72 24.3867C866.374 24.1221 874.175 31.7419 879.964 37.3275C885.116 42.2611 887.618 44.5088 893.427 44.4277L893.72 64.9467Z" fill="currentColor"/>
<path d="M1058.07 62.6062C1043.42 62.8709 1035.62 55.2511 1029.83 49.6655C1024.68 44.7318 1022.17 42.4841 1016.37 42.5653C1010.56 42.6464 1008.08 44.9635 1003.09 50.0588C997.523 55.6827 989.92 63.4776 975.267 63.7422C960.613 64.0068 952.811 56.387 947.023 50.8014C941.871 45.8677 939.369 43.6201 933.56 43.7012C927.75 43.7823 925.273 46.0994 920.285 51.1946C914.716 56.8186 907.114 64.6135 892.461 64.8782C877.807 65.1428 870.005 57.523 864.216 51.9374C859.065 47.0036 856.563 44.756 850.753 44.8371L850.461 24.3181C865.114 24.0534 872.916 31.6732 878.705 37.2588C883.857 42.1925 886.359 44.4402 892.168 44.3591C897.977 44.278 900.454 41.9609 905.443 36.8656C911.011 31.2416 918.613 23.4468 933.267 23.1821C947.92 22.9175 955.722 30.5373 961.511 36.1229C966.663 41.0566 969.165 43.3043 974.974 43.2232C980.783 43.1421 983.261 40.8249 988.249 35.7296C993.817 30.1056 1001.42 22.3108 1016.07 22.0462C1030.73 21.7816 1038.53 29.4014 1044.32 34.987C1049.47 39.9207 1051.97 42.1683 1057.78 42.0872L1058.07 62.6062Z" fill="currentColor"/>
<path d="M1223.49 60.2602C1208.84 60.5249 1201.04 52.9052 1195.25 47.3196C1190.1 42.3859 1187.59 40.1382 1181.78 40.2193C1175.98 40.3004 1173.5 42.6175 1168.51 47.7128C1162.94 53.3368 1155.34 61.1316 1140.69 61.3962C1126.03 61.6608 1118.23 54.041 1112.44 48.4555C1107.29 43.5218 1104.79 41.2741 1098.98 41.3552C1093.17 41.4363 1090.69 43.7534 1085.7 48.8487C1080.14 54.4727 1072.53 62.2675 1057.88 62.5321C1043.23 62.7968 1035.42 55.177 1029.63 49.5914C1024.48 44.6577 1021.98 42.41 1016.17 42.4911L1015.88 21.9721C1030.53 21.7075 1038.33 29.3272 1044.12 34.9128C1049.28 39.8465 1051.78 42.0942 1057.59 42.0131C1063.4 41.932 1065.87 39.6149 1070.86 34.5196C1076.43 28.8956 1084.03 21.1008 1098.69 20.8362C1113.34 20.5716 1121.14 28.1914 1126.93 33.777C1132.08 38.7107 1134.58 40.9583 1140.39 40.8772C1146.2 40.7961 1148.68 38.479 1153.67 33.3836C1159.24 27.7597 1166.84 19.965 1181.49 19.7003C1196.15 19.4357 1203.95 27.0555 1209.74 32.641C1214.89 37.5747 1217.39 39.8224 1223.2 39.7413L1223.49 60.2602Z" fill="currentColor"/>
<path d="M1387.54 57.6893C1372.89 57.954 1365.09 50.3341 1359.3 44.7486C1354.15 39.8149 1351.65 37.5672 1345.84 37.6484C1340.03 37.7295 1337.55 40.0465 1332.56 45.1419C1326.99 50.7659 1319.39 58.5606 1304.74 58.8252C1290.08 59.0899 1282.28 51.4701 1276.49 45.8846C1271.34 40.9508 1268.84 38.7031 1263.03 38.7842C1257.22 38.8653 1254.74 41.1824 1249.76 46.2777C1244.19 51.9016 1236.59 59.6966 1221.93 59.9612C1207.28 60.2259 1199.48 52.606 1193.69 47.0205C1188.54 42.0868 1186.03 39.8391 1180.23 39.9202L1179.93 19.4012C1194.59 19.1366 1202.39 26.7564 1208.18 32.3419C1213.33 37.2756 1215.83 39.5233 1221.64 39.4422C1227.45 39.3611 1229.93 37.044 1234.91 31.9487C1240.48 26.3247 1248.08 18.5298 1262.74 18.2651C1277.39 18.0006 1285.19 25.6205 1290.98 31.2061C1296.13 36.1397 1298.64 38.3873 1304.45 38.3062C1310.25 38.2251 1312.73 35.9079 1317.72 30.8127C1323.29 25.1887 1330.89 17.394 1345.54 17.1294C1360.2 16.8647 1368 24.4845 1373.79 30.0701C1378.94 35.0038 1381.44 37.2514 1387.25 37.1704L1387.54 57.6893Z" fill="currentColor"/>
<path d="M1552.96 55.3434C1538.31 55.608 1530.51 47.9882 1524.72 42.4026C1519.57 37.4689 1517.06 35.2212 1511.26 35.3024C1505.45 35.3834 1502.97 37.7007 1497.98 42.796C1492.41 48.42 1484.81 56.2147 1470.16 56.4793C1455.5 56.744 1447.7 49.1242 1441.91 43.5386C1436.76 38.6049 1434.26 36.3572 1428.45 36.4383C1422.64 36.5194 1420.16 38.8365 1415.17 43.9318C1409.61 49.5557 1402 57.3506 1387.35 57.6153C1372.7 57.8799 1364.9 50.2601 1359.11 44.6744C1353.95 39.7407 1351.45 37.4932 1345.64 37.5742L1345.35 17.0551C1360 16.7905 1367.81 24.4103 1373.6 29.9959C1378.75 34.9296 1381.25 37.1773 1387.06 37.0962C1392.87 37.0151 1395.34 34.698 1400.33 29.6027C1405.9 23.9788 1413.5 16.1839 1428.16 15.9192C1442.81 15.6546 1450.61 23.2745 1456.4 28.8601C1461.55 33.7938 1464.05 36.0414 1469.86 35.9603C1475.67 35.8792 1478.15 33.562 1483.14 28.4667C1488.71 22.8428 1496.31 15.048 1510.96 14.7834C1525.62 14.5187 1533.42 22.1385 1539.21 27.7241C1544.36 32.6578 1546.86 34.9055 1552.67 34.8244L1552.96 55.3434Z" fill="currentColor"/>
<path d="M1717.32 53.0029C1702.66 53.2676 1694.86 45.6476 1689.07 40.0621C1683.92 35.1284 1681.42 32.8808 1675.61 32.9619C1669.8 33.043 1667.32 35.3601 1662.33 40.4555C1656.77 46.0794 1649.16 53.8741 1634.51 54.1388C1619.86 54.4034 1612.05 46.7837 1606.27 41.1981C1601.11 36.2643 1598.61 34.0166 1592.8 34.0977C1586.99 34.1788 1584.52 36.4959 1579.53 41.5913C1573.96 47.2153 1566.36 55.0102 1551.7 55.2748C1537.05 55.5394 1529.25 47.9196 1523.46 42.334C1518.31 37.4003 1515.81 35.1527 1510 35.2338L1509.7 14.7147C1524.36 14.4501 1532.16 22.0699 1537.95 27.6554C1543.1 32.5891 1545.6 34.8369 1551.41 34.7558C1557.22 34.6747 1559.7 32.3575 1564.69 27.2623C1570.25 21.6383 1577.86 13.8433 1592.51 13.5787C1607.16 13.314 1614.97 20.934 1620.75 26.5196C1625.91 31.4533 1628.41 33.7008 1634.22 33.6197C1640.03 33.5386 1642.5 31.2215 1647.49 26.1262C1653.06 20.5022 1660.66 12.7075 1675.32 12.4429C1689.97 12.1783 1697.77 19.7979 1703.56 25.3836C1708.71 30.3173 1711.21 32.565 1717.02 32.4839L1717.32 53.0029Z" fill="currentColor"/>
<path d="M1882.73 50.6569C1868.08 50.9216 1860.28 43.3017 1854.49 37.7162C1849.34 32.7825 1846.84 30.5349 1841.03 30.616C1835.22 30.6971 1832.74 33.0142 1827.75 38.1095C1822.18 43.7335 1814.58 51.5282 1799.93 51.7928C1785.27 52.0574 1777.47 44.4377 1771.68 38.852C1766.53 33.9183 1764.03 31.6707 1758.22 31.7518C1752.41 31.8329 1749.93 34.15 1744.95 39.2453C1739.38 44.8693 1731.78 52.6642 1717.12 52.9288C1702.47 53.1934 1694.67 45.5737 1688.88 39.9881C1683.73 35.0544 1681.22 32.8067 1675.42 32.8878L1675.12 12.3688C1689.78 12.1041 1697.58 19.7238 1703.37 25.3094C1708.52 30.2431 1711.02 32.4908 1716.83 32.4098C1722.64 32.3286 1725.12 30.0115 1730.1 24.9162C1735.67 19.2922 1743.27 11.4974 1757.93 11.2327C1772.58 10.9681 1780.38 18.588 1786.17 24.1736C1791.32 29.1073 1793.83 31.3549 1799.64 31.2738C1805.44 31.1927 1807.92 28.8755 1812.91 23.7803C1818.48 18.1563 1826.08 10.3615 1840.73 10.097C1855.39 9.83235 1863.19 17.452 1868.98 23.0376C1874.13 27.9713 1876.63 30.219 1882.44 30.138L1882.73 50.6569Z" fill="currentColor"/>
<path d="M2046.79 48.086C2032.13 48.3506 2024.33 40.7308 2018.54 35.1452C2013.39 30.2115 2010.89 27.964 2005.08 28.0451C1999.27 28.1262 1996.79 30.4433 1991.81 35.5386C1986.24 41.1626 1978.64 48.9572 1963.98 49.2218C1949.33 49.4865 1941.53 41.8667 1935.74 36.2811C1930.59 31.3474 1928.08 29.0997 1922.27 29.1808C1916.47 29.2619 1913.99 31.5791 1909 36.6744C1903.43 42.2983 1895.83 50.0932 1881.18 50.3578C1866.52 50.6225 1858.72 43.0027 1852.93 37.4171C1847.78 32.4834 1845.28 30.2358 1839.47 30.3169L1839.18 9.79781C1853.83 9.53318 1861.63 17.1529 1867.42 22.7385C1872.57 27.6722 1875.07 29.9199 1880.88 29.8388C1886.69 29.7577 1889.17 27.4406 1894.16 22.3453C1899.73 16.7213 1907.33 8.92639 1921.98 8.66175C1936.64 8.39719 1944.44 16.0171 1950.23 21.6027C1955.38 26.5364 1957.88 28.7839 1963.69 28.7028C1969.5 28.6217 1971.98 26.3046 1976.96 21.2093C1982.53 15.5853 1990.13 7.79065 2004.79 7.52602C2019.44 7.26138 2027.24 14.8811 2033.03 20.4666C2038.18 25.4003 2040.69 27.6481 2046.5 27.567L2046.79 48.086Z" fill="currentColor"/>
<path d="M2212.21 45.74C2197.55 46.0046 2189.75 38.3847 2183.96 32.7992C2178.81 27.8654 2176.31 25.6179 2170.5 25.699C2164.69 25.7801 2162.21 28.0973 2157.22 33.1926C2151.66 38.8166 2144.05 46.6112 2129.4 46.8758C2114.75 47.1405 2106.94 39.5208 2101.16 33.9352C2096 29.0015 2093.5 26.7538 2087.69 26.8348C2081.88 26.916 2079.41 29.2331 2074.42 34.3284C2068.85 39.9523 2061.25 47.7472 2046.59 48.0119C2031.94 48.2765 2024.14 40.6568 2018.35 35.0712C2013.2 30.1375 2010.7 27.8898 2004.89 27.9709L2004.59 7.45178C2019.25 7.18715 2027.05 14.8069 2032.84 20.3925C2037.99 25.3263 2040.49 27.5739 2046.3 27.4928C2052.11 27.4117 2054.59 25.0946 2059.58 19.9993C2065.14 14.3753 2072.75 6.58044 2087.4 6.31587C2102.05 6.05124 2109.86 13.6712 2115.64 19.2567C2120.8 24.1904 2123.3 26.4379 2129.11 26.3568C2134.92 26.2757 2137.39 23.9585 2142.38 18.8633C2147.95 13.2393 2155.55 5.4447 2170.21 5.18006C2184.86 4.91543 2192.66 12.5351 2198.45 18.1207C2203.6 23.0544 2206.1 25.3021 2211.91 25.221L2212.21 45.74Z" fill="currentColor"/>
<path d="M2376.56 43.3995C2361.91 43.6642 2354.1 36.0443 2348.31 30.4587C2343.16 25.525 2340.66 23.2774 2334.85 23.3585C2329.04 23.4396 2326.57 25.7567 2321.58 30.8521C2316.01 36.476 2308.41 44.2707 2293.75 44.5354C2279.1 44.8 2271.3 37.1803 2265.51 31.5948C2260.36 26.661 2257.85 24.4132 2252.05 24.4943C2246.24 24.5754 2243.76 26.8926 2238.77 31.9879C2233.2 37.6119 2225.6 45.4068 2210.95 45.6714C2196.29 45.936 2188.49 38.3162 2182.7 32.7306C2177.55 27.7969 2175.05 25.5493 2169.24 25.6304L2168.95 5.11134C2183.6 4.8467 2191.4 12.4665 2197.19 18.052C2202.34 22.9857 2204.85 25.2334 2210.65 25.1524C2216.46 25.0713 2218.94 22.7541 2223.93 17.6589C2229.5 12.0349 2237.1 4.23999 2251.75 3.97536C2266.41 3.71072 2274.21 11.3306 2280 16.9162C2285.15 21.8499 2287.65 24.0974 2293.46 24.0163C2299.27 23.9352 2301.75 21.6181 2306.74 16.5228C2312.3 10.8988 2319.91 3.10411 2334.56 2.83954C2349.21 2.5749 2357.01 10.1947 2362.8 15.7802C2367.96 20.7139 2370.46 22.9616 2376.27 22.8805L2376.56 43.3995Z" fill="currentColor"/>
<path d="M2541.98 41.0537C2527.32 41.3183 2519.52 33.6984 2513.73 28.1127C2508.58 23.179 2506.08 20.9315 2500.27 21.0126C2494.46 21.0937 2491.98 23.4108 2487 28.5061C2481.43 34.1301 2473.83 41.9248 2459.17 42.1894C2444.52 42.454 2436.72 34.8343 2430.93 29.2487C2425.78 24.3149 2423.27 22.0673 2417.46 22.1484C2411.66 22.2295 2409.18 24.5466 2404.19 29.6419C2398.62 35.2659 2391.02 43.0608 2376.37 43.3255C2361.71 43.5901 2353.91 35.9703 2348.12 30.3847C2342.97 25.4509 2340.47 23.2034 2334.66 23.2845L2334.37 2.76538C2349.02 2.50074 2356.82 10.1204 2362.61 15.706C2367.76 20.6397 2370.26 22.8875 2376.07 22.8064C2381.88 22.7253 2384.36 20.4082 2389.35 15.3129C2394.92 9.68892 2402.52 1.89398 2417.17 1.62933C2431.82 1.3647 2439.63 8.98461 2445.42 14.5702C2450.57 19.5039 2453.07 21.7515 2458.88 21.6704C2464.69 21.5893 2467.17 19.2721 2472.15 14.1769C2477.72 8.55287 2485.32 0.758225 2499.98 0.493586C2514.63 0.228947 2522.43 7.84857 2528.22 13.4341C2533.37 18.3678 2535.88 20.6156 2541.69 20.5346L2541.98 41.0537Z" fill="currentColor"/>
</g>
</svg>
