<svg width="13" height="13" viewBox="0 0 13 13" fill="none" xmlns="http://www.w3.org/2000/svg">
<path d="M2.09961 1.7002V0.5C2.09961 0.279086 2.27909 0.0996094 2.5 0.0996094C2.72091 0.0996094 2.90039 0.279086 2.90039 0.5V1.7002C2.90029 1.92102 2.72085 2.09961 2.5 2.09961C2.27915 2.09961 2.09971 1.92102 2.09961 1.7002ZM9.2998 1.7002V0.5C9.2998 0.279086 9.47928 0.0996094 9.7002 0.0996094C9.92102 0.0997149 10.0996 0.279151 10.0996 0.5V1.7002C10.0995 1.92095 9.92095 2.0995 9.7002 2.09961C9.47935 2.09961 9.29991 1.92102 9.2998 1.7002Z" fill="currentColor"/>
<path d="M3.70605 8.94971L3.81641 8.96143C4.06702 9.01272 4.25586 9.23471 4.25586 9.50049C4.25567 9.76608 4.06688 9.98729 3.81641 10.0386L3.70605 10.0503H3.7002C3.39657 10.0503 3.1506 9.80407 3.15039 9.50049C3.15039 9.19673 3.39644 8.94971 3.7002 8.94971H3.70605ZM6.10254 8.94971L6.21387 8.96143C6.46441 9.01277 6.65332 9.23476 6.65332 9.50049C6.65314 9.76603 6.46427 9.98724 6.21387 10.0386L6.10254 10.0503H6.09766C5.79403 10.0503 5.54806 9.80407 5.54785 9.50049C5.54785 9.19673 5.7939 8.94971 6.09766 8.94971H6.10254ZM3.70605 6.55029L3.81641 6.56104C4.06706 6.6123 4.25586 6.83429 4.25586 7.1001C4.25586 7.36591 4.06706 7.5879 3.81641 7.63916L3.70605 7.6499H3.7002C3.39644 7.6499 3.15039 7.40385 3.15039 7.1001C3.15039 6.79634 3.39644 6.55029 3.7002 6.55029H3.70605ZM6.10254 6.55029L6.21387 6.56104C6.46445 6.61235 6.65332 6.83434 6.65332 7.1001C6.65332 7.36585 6.46445 7.58784 6.21387 7.63916L6.10254 7.6499H6.09766C5.7939 7.6499 5.54785 7.40385 5.54785 7.1001C5.54785 6.79634 5.7939 6.55029 6.09766 6.55029H6.10254ZM8.5 6.55029L8.61133 6.56104C8.86184 6.61241 9.0498 6.83439 9.0498 7.1001C9.0498 7.3658 8.86184 7.58779 8.61133 7.63916L8.5 7.6499H8.49512C8.19136 7.6499 7.94434 7.40385 7.94434 7.1001C7.94434 6.79634 8.19136 6.55029 8.49512 6.55029H8.5Z" fill="currentColor"/>
<path d="M11.2002 3.75049L11.2705 3.75732C11.43 3.78996 11.5498 3.93096 11.5498 4.1001C11.5498 4.26924 11.43 4.41024 11.2705 4.44287L11.2002 4.44971H1C0.8067 4.44971 0.650391 4.2934 0.650391 4.1001C0.650391 3.9068 0.8067 3.75049 1 3.75049H11.2002Z" fill="currentColor"/>
<path d="M11.4004 6.646C11.4004 5.32843 11.3997 4.37748 11.3096 3.65283C11.2205 2.93689 11.0503 2.50259 10.7559 2.18408C10.4654 1.87003 10.0757 1.69139 9.42773 1.59717C8.76468 1.50079 7.89127 1.50049 6.66992 1.50049H5.53027C4.30902 1.50049 3.43647 1.50081 2.77344 1.59717C2.12529 1.69137 1.73586 1.86998 1.44531 2.18408C1.15072 2.50261 0.980656 2.93675 0.891602 3.65283C0.801491 4.37748 0.800781 5.3284 0.800781 6.646V6.95459C0.800781 8.27203 0.801489 9.22316 0.891602 9.94775C0.980675 10.6637 1.15071 11.098 1.44531 11.4165C1.73584 11.7305 2.12539 11.9082 2.77344 12.0024C3.43648 12.0988 4.30898 12.1001 5.53027 12.1001H6.66992C7.89127 12.1001 8.76468 12.0988 9.42773 12.0024C10.0756 11.9082 10.4654 11.7305 10.7559 11.4165C11.0504 11.098 11.2205 10.6637 11.3096 9.94775C11.3997 9.22316 11.4004 8.27203 11.4004 6.95459V6.646ZM12.2002 6.95459C12.2002 8.25109 12.2012 9.26091 12.1035 10.0464C12.0048 10.8404 11.7993 11.4659 11.3428 11.9595C10.882 12.4576 10.2908 12.6856 9.54199 12.7944C8.80814 12.901 7.86664 12.8999 6.66992 12.8999H5.53027C4.33337 12.8999 3.39209 12.9011 2.6582 12.7944C1.90953 12.6856 1.31907 12.4574 0.858398 11.9595C0.401814 11.4659 0.19642 10.8404 0.0976562 10.0464C-2.82004e-05 9.26091 -1.62498e-07 8.25109 5.96611e-10 6.95459V6.646C-1.70749e-08 5.34941 -1.48192e-05 4.33973 0.0976562 3.5542C0.196407 2.76015 0.40181 2.13475 0.858398 1.64111C1.31908 1.14308 1.90948 0.915003 2.6582 0.806152C3.39209 0.699484 4.33337 0.699707 5.53027 0.699707H6.66992C7.86667 0.699707 8.80813 0.699535 9.54199 0.806152C10.2908 0.914992 10.882 1.14303 11.3428 1.64111C11.7992 2.13472 12.0048 2.76025 12.1035 3.5542C12.2012 4.33972 12.2002 5.34944 12.2002 6.646V6.95459Z" fill="currentColor"/>
<path d="M11.501 3.69971L11.582 3.7085C11.7642 3.74591 11.9014 3.9069 11.9014 4.1001C11.9014 4.2933 11.7642 4.45429 11.582 4.4917L11.501 4.50049H0.701172C0.480258 4.50049 0.300781 4.32101 0.300781 4.1001C0.300781 3.87918 0.480258 3.69971 0.701172 3.69971H11.501Z" fill="currentColor"/>
</svg>
