<svg width="1100" height="650" viewBox="0 0 1100 650" fill="none" xmlns="http://www.w3.org/2000/svg">
<path fill-rule="evenodd" clip-rule="evenodd" d="M-145 0C-133.733 0 -122.466 0 -111.199 0C98.5896 16.5101 265.154 109.26 388.491 278.25C404.744 302.1 419.578 326.884 432.995 352.6C446.569 354.399 458.587 350.831 469.05 341.898C496.937 315.499 527.734 311.744 561.439 330.633C568.528 335.84 575.288 341.473 581.719 347.53C606.488 359.181 627.895 354.675 645.941 334.012C675.572 313.831 705.241 313.831 734.95 334.012C742.865 343.226 752.629 349.61 764.244 353.163C774.708 354.649 784.848 353.522 794.665 349.783C804.316 343.891 813.33 337.131 821.706 329.506C847.956 314.835 873.87 315.399 899.448 331.196C900.495 332.535 900.87 334.037 900.575 335.702C900.575 341.71 900.575 347.718 900.575 353.726C900.76 357.5 900.572 361.255 900.011 364.991C871.854 337.406 844.25 337.97 817.199 366.681C788.984 383.888 760.817 383.888 732.697 366.681C726.208 360.19 719.073 354.558 711.29 349.783C687.912 340.325 668.006 345.206 651.575 364.428C624.358 382.873 596.191 384.374 567.072 368.934C561.152 365.272 555.893 360.766 551.299 355.416C532.991 342.186 514.212 341.435 494.964 353.163C488.102 360.027 480.592 366.036 472.43 371.187C463.859 374.73 455.222 377.921 446.516 380.763C450.54 388.804 453.92 397.064 456.656 405.546C459.491 405.259 462.121 404.319 464.543 402.73C494.671 372.19 528.095 368.059 564.819 390.338C592.198 418.029 619.615 418.029 647.068 390.338C672.782 373.266 699.448 371.763 727.063 385.832C735.225 390.983 742.736 396.992 749.597 403.856C768.039 413.935 786.066 413.184 803.679 401.603C832.653 372.717 864.952 368.399 900.575 388.648C900.575 389.023 900.575 389.4 900.575 389.775C900.575 395.782 900.575 401.791 900.575 407.799C900.575 412.68 900.575 417.562 900.575 422.444C895.968 419.534 891.836 415.966 888.181 411.742C870.581 400.105 852.554 399.353 834.1 409.489C825.283 417.93 815.518 425.064 804.805 430.893C771.937 443.622 743.394 437.238 719.176 411.742C701.565 400.134 683.538 399.384 665.095 409.489C640.923 435.192 612.005 442.703 578.339 432.019C566.569 426.257 556.053 418.748 546.792 409.489C522.768 396.721 501.736 400.475 483.697 420.754C478.444 424.884 472.811 428.451 466.796 431.456C469.215 437.968 471.844 444.352 474.683 450.607C501.792 430.386 530.334 428.321 560.312 444.411C566.233 448.073 571.491 452.579 576.086 457.929C595.279 471.796 614.809 472.173 634.674 459.055C664.083 429.885 696.757 425.756 732.697 446.664C740.93 455.659 750.694 462.418 761.991 466.941C777.622 470.274 791.892 467.27 804.805 457.929C824.517 436.851 848.553 429.341 876.914 435.399C885.4 437.765 893.287 441.333 900.575 446.101C900.575 451.358 900.575 456.614 900.575 461.872C900.575 467.504 900.575 473.137 900.575 478.77C900.575 479.145 900.575 479.521 900.575 479.896C893.941 473.831 886.805 468.385 879.167 463.562C865.075 457.99 851.178 458.365 837.48 464.688C830.767 469.52 824.383 474.777 818.326 480.459C790.983 498.237 763.191 498.987 734.95 482.712C728.519 476.655 721.759 471.022 714.67 465.815C700.334 458.559 685.687 457.807 670.729 463.562C660.906 471.506 650.766 479.016 640.308 486.092C612.677 499.085 586.387 496.832 561.439 479.333C541.199 457.117 518.29 453.737 492.71 469.194C489.028 472.682 485.648 476.249 482.57 479.896C484.084 486.328 485.774 492.712 487.64 499.047C522.59 483.874 553.199 490.07 579.466 517.634C604.146 530.499 625.929 526.743 644.814 506.369C668.61 489.523 694.149 486.52 721.43 497.357C731.652 502.471 740.666 509.23 748.471 517.634C766.075 527.323 783.727 527.323 801.425 517.634C830.24 488.027 862.914 482.958 899.448 502.426C900.199 506.343 900.951 510.099 901.701 513.692C905.981 514.799 910.487 515.175 915.222 514.818C922.891 522.116 932.092 525.495 942.826 524.957C947.973 524.983 953.043 524.419 958.036 523.267C964.795 520.639 971.179 517.447 977.19 513.692C987.33 515.193 997.471 515.193 1007.61 513.692C1010.24 513.692 1012.87 513.692 1015.5 513.692C1024.88 513.692 1034.28 513.692 1043.67 513.692C1046.67 513.692 1049.67 513.692 1052.68 513.692C1062.06 513.692 1071.46 513.692 1080.85 513.692C1085.97 517.57 1091.61 520.575 1097.75 522.704C1098.13 523.648 1098.88 524.024 1100 523.83C1100 532.467 1100 541.103 1100 549.74C1091.21 548.626 1082.95 545.81 1075.21 541.291C1068.5 536.46 1062.12 531.202 1056.06 525.52C1038.29 514.647 1020.26 514.271 1001.98 524.393C974.227 553.356 942.303 558.989 906.208 541.291C899.119 536.083 892.359 530.451 885.928 524.393C860.469 511.13 838.31 515.261 819.452 536.785C796.608 552.026 772.195 555.03 746.217 545.797C735.253 540.314 725.488 533.18 716.923 524.393C698.618 514.274 680.59 514.65 662.842 525.52C640.678 548.618 614.013 556.127 582.846 548.05C569.379 542.844 557.735 534.958 547.919 524.393C531.204 515.094 514.304 514.719 497.217 523.267C495.088 524.481 493.961 526.359 493.837 528.899C495.152 536.597 496.466 544.296 497.781 551.993C529.008 542.996 555.861 550.318 578.339 573.96C603.825 588.311 626.359 584.555 645.941 562.695C675.572 542.513 705.241 542.513 734.95 562.695C754.461 584.64 776.995 588.394 802.552 573.96C833.339 543.076 867.14 539.321 903.955 562.695C921.869 583.739 943.276 588.245 968.177 576.213C973.435 571.707 978.692 567.201 983.95 562.695C1020.69 539.651 1054.49 543.406 1085.35 573.96C1089.95 577.01 1094.83 579.451 1100 581.282C1100 589.919 1100 598.555 1100 607.192C1092.88 606.385 1086.12 604.319 1079.72 600.997C1069.26 593.921 1059.12 586.41 1049.3 578.466C1034.45 571.35 1019.8 571.726 1005.36 579.593C998.642 584.424 992.265 589.682 986.204 595.364C957.954 612.608 929.786 612.608 901.701 595.364C893.23 586.062 883.089 579.303 871.281 575.087C855.943 571.504 842.046 574.509 829.593 584.099C807.079 606.906 780.415 613.665 749.597 604.376C743.785 601.659 738.151 598.654 732.697 595.364C724.225 586.062 714.085 579.303 702.276 575.087C681.81 571.018 664.909 577.026 651.575 593.111C624.342 611.555 596.175 613.058 567.072 597.617C559.131 590.803 550.869 584.419 542.285 578.466C529.177 572.168 516.032 571.98 502.851 577.903C502.294 587.627 502.294 597.389 502.851 607.192C531.936 601.178 556.724 608.877 577.213 630.286C596.333 642.957 615.487 642.957 634.674 630.286C661.62 602.97 692.417 597.713 727.063 614.515C735.225 619.666 742.736 625.675 749.597 632.539C768.039 642.618 786.066 641.867 803.679 630.286C833.738 600.728 866.787 596.974 902.828 619.021C930.207 646.712 957.624 646.712 985.077 619.021C1013.97 600.384 1042.89 600.384 1071.83 619.021C1077.89 624.703 1084.27 629.96 1090.99 634.792C1093.63 635.746 1096.27 636.685 1098.87 637.608C1098.87 641.363 1098.87 645.119 1098.87 648.873C1088.36 648.873 1077.84 648.873 1067.33 648.873C1063.49 646.747 1060.11 643.93 1057.19 640.425C1031.95 625.185 1009.41 628.378 989.584 650C985.449 650 981.322 650 977.19 650C963.67 650 950.149 650 936.629 650C923.86 650 911.09 650 898.321 650C878.361 628.837 855.827 625.646 830.719 640.425C827.789 643.93 824.409 646.747 820.579 648.873C790.158 648.873 759.738 648.873 729.317 648.873C725.465 646.72 722.084 643.903 719.176 640.425C693.942 625.185 671.408 628.378 651.575 650C626.412 650 601.248 650 576.086 650C570.828 650 565.57 650 560.312 650C545.189 632.814 526.786 627.556 505.104 634.229C503.994 638.886 503.619 643.768 503.977 648.873C457.031 648.873 410.086 648.873 363.14 648.873C316.194 648.873 269.249 648.873 222.303 648.873C218.451 646.72 215.071 643.903 212.163 640.425C187.195 625.007 165.038 628.199 145.688 650C141.932 650 138.176 650 134.421 650C112.262 650 90.1044 650 67.9457 650C63.0637 650 58.1806 650 53.2986 650C35.8709 630.631 15.214 626.312 -8.66968 637.045C-14.4395 640.374 -19.3226 644.693 -23.3167 650C-28.575 650 -33.8325 650 -39.0905 650C-64.629 650 -90.1674 650 -115.706 650C-123.322 640.558 -133.087 634.549 -145 631.976C-145 623.339 -145 614.703 -145 606.066C-133.199 607.433 -122.308 611.376 -112.326 617.894C-106.692 622.775 -101.059 627.658 -95.4253 632.539C-80.9804 640.92 -65.9578 642.047 -50.3575 635.919C-40.7065 630.026 -31.6926 623.267 -23.3167 615.641C13.0846 597.507 45.3836 603.139 73.5792 632.539C98.4736 644.905 120.256 640.774 138.928 620.147C167.26 600.659 196.178 599.907 225.683 617.894C231.317 622.775 236.95 627.658 242.584 632.539C246.774 635.202 251.281 636.892 256.104 637.608C256.163 627.449 255.786 617.311 254.977 607.192C237.883 604.092 223.612 596.018 212.163 582.972C193.976 570.872 175.572 570.496 156.955 581.846C129.45 609.951 97.9023 615.584 62.3122 598.743C55.3053 594.294 48.9203 589.036 43.1584 582.972C24.9712 570.872 6.56776 570.496 -12.0498 581.846C-39.5551 609.951 -71.1027 615.584 -106.692 598.743C-114.615 593.276 -122.126 587.269 -129.226 580.719C-134.217 577.869 -139.475 575.803 -145 574.523C-145 565.886 -145 557.25 -145 548.614C-132.628 550.107 -121.361 554.425 -111.199 561.568C-105.142 567.251 -98.7579 572.508 -92.0452 577.34C-75.524 584.686 -59.3748 583.934 -43.5973 575.087C-13.3241 543.881 20.4768 539.375 57.8054 561.568C63.8625 567.251 70.2464 572.508 76.9593 577.34C93.462 584.626 109.612 583.876 125.407 575.087C155.647 543.888 189.448 539.382 226.81 561.568C233.516 568.466 241.028 574.286 249.344 579.029C248.633 568.411 246.568 557.897 243.147 547.487C230.538 542.018 219.458 534.32 209.909 524.393C184.492 511.143 162.335 515.274 143.434 536.785C120.622 552.079 96.2111 555.082 70.1991 545.797C60.2921 541.151 51.6548 534.769 44.2851 526.646C26.9339 515.293 8.90678 514.167 -9.79639 523.267C-19.0578 532.526 -29.5733 540.035 -41.3439 545.797C-62.2955 553.151 -82.9517 552.401 -103.312 543.544C-113.341 537.274 -122.731 530.14 -131.48 522.14C-135.769 520.021 -140.276 518.708 -145 518.198C-145 509.185 -145 500.173 -145 491.161C-126.167 494.003 -110.394 502.452 -97.6787 516.508C-82.3013 525.915 -66.1521 527.417 -49.2308 521.014C-40.6466 515.061 -32.3842 508.677 -24.4434 501.863C-2.86269 489.758 19.6712 487.88 43.1584 496.23C54.929 501.993 65.4444 509.502 74.7059 518.761C89.3394 526.115 104.362 526.866 119.774 521.014C129.596 513.07 139.737 505.559 150.195 498.484C170.526 489.604 191.182 488.854 212.163 496.23C218.579 498.904 224.401 502.471 229.627 506.932C226.04 495.449 221.534 484.184 216.106 473.137C202.768 460.777 187.183 456.834 169.348 461.309C160.591 464.812 153.079 470.068 146.814 477.08C118.165 498.467 88.4955 499.968 57.8054 481.586C49.3338 472.284 39.1935 465.525 27.3846 461.309C13.7651 457.682 0.995117 459.56 -10.9231 466.941C-34.8263 492.067 -63.3692 499.577 -96.552 489.471C-100.308 487.594 -104.063 485.717 -107.819 483.839C-115.33 477.831 -122.842 471.822 -130.353 465.815C-134.979 463.334 -139.862 461.644 -145 460.745C-145 452.108 -145 443.472 -145 434.835C-136.737 435.397 -128.85 437.462 -121.339 441.031C-110.882 448.107 -100.741 455.617 -90.9186 463.562C-75.1451 470.727 -59.7469 469.977 -44.724 461.309C-35.4629 452.05 -24.9471 444.54 -13.1765 438.778C7.38687 431.559 27.6674 432.311 47.6652 441.031C58.5569 448.917 69.4476 456.802 80.3394 464.688C103.917 472.218 123.822 466.585 140.054 447.79C155.909 436.688 173.56 431.619 193.009 432.582C186.709 422.161 179.573 412.397 171.602 403.293C159.935 407.999 149.795 414.947 141.181 424.133C113.927 440.816 86.5114 441.191 58.9321 425.26C51.4204 419.252 43.9099 413.243 36.3982 407.236C21.1314 400.201 6.10919 400.576 -8.66968 408.362C-15.3825 413.194 -21.7664 418.451 -27.8235 424.133C-64.4601 445.31 -97.5098 440.804 -126.973 410.615C-132.577 407.183 -138.586 404.742 -145 403.293C-145 394.656 -145 386.02 -145 377.383C-133.187 378.754 -122.295 382.697 -112.326 389.211C-103.215 399.073 -92.3239 406.207 -79.6516 410.615C-69.6023 411.923 -59.8377 410.797 -50.3575 407.236C-40.7065 401.343 -31.6926 394.584 -23.3167 386.958C13.0846 368.824 45.3836 374.456 73.5792 403.856C89.8521 413.214 106.377 413.589 123.154 404.983C130.243 399.775 137.003 394.142 143.434 388.085C147.371 386.306 151.126 384.24 154.701 381.889C150.211 376.837 145.518 371.955 140.618 367.244C115.029 382.571 88.927 383.51 62.3122 370.061C54.1504 364.909 46.6399 358.9 39.7783 352.036C22.2446 341.939 4.96898 342.316 -12.0498 353.163C-39.5551 381.268 -71.1027 386.901 -106.692 370.061C-114.615 364.594 -122.126 358.586 -129.226 352.036C-134.217 349.186 -139.475 347.12 -145 345.841C-145 337.204 -145 328.568 -145 319.931C-136.341 320.969 -128.078 323.41 -120.213 327.253C-110.216 333.567 -100.827 340.703 -92.0452 348.657C-75.5347 355.969 -59.3855 355.218 -43.5973 346.404C-13.3241 315.198 20.4768 310.692 57.8054 332.886C65.2788 341.491 74.2924 347.875 84.8461 352.036C97.3052 355.108 109.324 353.982 120.9 348.657C44.8822 282.814 -43.7513 249.207 -145 247.834C-145 165.223 -145 82.6112 -145 0Z" fill="#F4F8FB"/>
</svg>
