<svg width="124" height="117" viewBox="0 0 124 117" fill="none" xmlns="http://www.w3.org/2000/svg">
<path d="M119.504 35.5L120.398 35.0528L119.504 35.5ZM77.5985 112.914C77.0936 112.69 76.8659 112.099 77.0898 111.595L80.7384 103.367C80.9623 102.862 81.553 102.635 82.0579 102.859C82.5628 103.083 82.7905 103.673 82.5666 104.178L79.3234 111.491L86.6366 114.734C87.1414 114.958 87.3692 115.549 87.1453 116.054C86.9214 116.559 86.3306 116.787 85.8258 116.563L77.5985 112.914ZM1.4668 0.628906L2.24553 0.00155401C2.90516 0.820358 3.57027 1.59539 4.24052 2.32863L3.50242 3.00332L2.76433 3.67802C2.06509 2.91307 1.37293 2.10639 0.688061 1.25626L1.4668 0.628906ZM7.93062 7.2167L8.56396 6.44283C10.1852 7.76968 11.833 8.89103 13.5041 9.83184L13.0135 10.7032L12.5229 11.5746C10.7488 10.5758 9.00575 9.3888 7.29727 7.99057L7.93062 7.2167ZM18.6094 13.2048L18.9313 12.258C20.8366 12.9059 22.7727 13.3664 24.7366 13.6702L24.5838 14.6585L24.4309 15.6467C22.3608 15.3265 20.3109 14.8396 18.2875 14.1516L18.6094 13.2048ZM30.7124 15.1417L30.7223 14.1417C32.7124 14.1615 34.7265 14.0583 36.7614 13.8611L36.8579 14.8565L36.9543 15.8518C34.8605 16.0546 32.7746 16.1622 30.7024 16.1416L30.7124 15.1417ZM42.9549 14.0269L42.7872 13.0411C44.7764 12.7026 46.7783 12.3048 48.7909 11.8742L49.0001 12.8521L49.2093 13.83C47.1786 14.2644 45.1478 14.6682 43.1227 15.0127L42.9549 14.0269ZM55.0066 11.5033L54.7817 10.529C56.7794 10.0678 58.7867 9.60039 60.7911 9.15525L61.0079 10.1315L61.2247 11.1077C59.2307 11.5505 57.2346 12.0153 55.2316 12.4777L55.0066 11.5033ZM67.0393 8.88399L66.8554 7.90105C68.9033 7.51777 70.9502 7.18466 72.9907 6.93106L73.114 7.92342L73.2374 8.91579C71.2465 9.16323 69.241 9.48929 67.2233 9.86692L67.0393 8.88399ZM79.253 7.43321L79.223 6.43366C81.3254 6.37064 83.4184 6.42567 85.4959 6.63242L85.3969 7.62751L85.2978 8.62259C83.3171 8.42547 81.3111 8.37197 79.2829 8.43276L79.253 7.43321ZM91.4462 8.71521L91.7045 7.74916C93.7067 8.28456 95.6859 8.99806 97.6366 9.92037L97.2092 10.8244L96.7818 11.7285C94.9442 10.8596 93.0785 10.1869 91.1879 9.68127L91.4462 8.71521ZM102.511 13.9387L103.09 13.1236C104.729 14.2885 106.339 15.6295 107.918 17.1649L107.221 17.8818L106.524 18.5987C105.015 17.1316 103.484 15.8568 101.932 14.7538L102.511 13.9387ZM111.327 22.4263L112.108 21.8016C113.345 23.3481 114.56 25.0341 115.751 26.8692L114.912 27.4137L114.073 27.9581C112.915 26.1745 111.739 24.5426 110.546 23.0509L111.327 22.4263ZM118.046 32.7004L118.924 32.2233C119.42 33.1365 119.912 34.0794 120.398 35.0528L119.504 35.5L118.609 35.9472C118.133 34.9933 117.652 34.0704 117.167 33.1776L118.046 32.7004ZM119.504 35.5L120.398 35.0528C120.839 35.9347 121.227 36.9064 121.56 37.9547L120.607 38.2577L119.654 38.5607C119.348 37.5976 118.998 36.724 118.609 35.9472L119.504 35.5ZM121.801 44.0965L122.795 43.9842C123.01 45.8843 123.103 47.9233 123.066 50.0683L122.066 50.0509L121.066 50.0335C121.102 47.9675 121.012 46.0155 120.808 44.2089L121.801 44.0965ZM121.645 56.0039L122.638 56.1244C122.402 58.0669 122.068 60.0657 121.629 62.1016L120.652 61.8912L119.674 61.6808C120.1 59.7035 120.424 57.7646 120.652 55.8833L121.645 56.0039ZM119.147 67.6655L120.103 67.9585C119.524 69.8481 118.855 71.7539 118.091 73.6617L117.163 73.2902L116.234 72.9187C116.977 71.0631 117.628 69.2097 118.191 67.3725L119.147 67.6655ZM114.719 78.7296L115.614 79.1771C114.724 80.9541 113.749 82.7212 112.682 84.4666L111.829 83.9453L110.976 83.424C112.012 81.7278 112.96 80.0101 113.825 78.2822L114.719 78.7296ZM108.504 88.8963L109.31 89.4892C108.129 91.0932 106.863 92.6675 105.51 94.2021L104.76 93.5407L104.01 92.8792C105.323 91.3897 106.552 89.8612 107.699 88.3034L108.504 88.8963ZM100.615 97.8374L101.303 98.5631C99.8613 99.9299 98.3385 101.252 96.7322 102.522L96.112 101.738L95.4919 100.953C97.0506 99.7211 98.5282 98.4378 99.9273 97.1116L100.615 97.8374ZM91.2716 105.225L91.8195 106.061C90.161 107.147 88.4274 108.18 86.6164 109.152L86.1435 108.271L85.6705 107.39C87.43 106.445 89.1137 105.443 90.7237 104.388L91.2716 105.225ZM80.776 110.866L81.1734 111.784C80.2542 112.182 79.3177 112.565 78.3636 112.933L78.0039 112L77.6442 111.067C78.573 110.709 79.4844 110.336 80.3786 109.949L80.776 110.866Z" fill="currentColor"/>
</svg>
