<svg width="12" height="12" viewBox="0 0 12 12" fill="none" xmlns="http://www.w3.org/2000/svg">
<path d="M5.99919 8.63748L3.92419 9.88748C3.83252 9.94581 3.73669 9.97081 3.63669 9.96247C3.53669 9.95414 3.44919 9.92081 3.37419 9.86248C3.29919 9.80414 3.24085 9.73131 3.19919 9.64398C3.15752 9.55664 3.14919 9.45864 3.17419 9.34998L3.72419 6.98748L1.88669 5.39998C1.80335 5.32498 1.75135 5.23948 1.73069 5.14348C1.71002 5.04748 1.71619 4.95381 1.74919 4.86248C1.78219 4.77114 1.83219 4.69614 1.89919 4.63748C1.96619 4.57881 2.05785 4.54131 2.17419 4.52498L4.59919 4.31248L5.53669 2.08748C5.57835 1.98748 5.64302 1.91248 5.73069 1.86248C5.81835 1.81248 5.90785 1.78748 5.99919 1.78748C6.09052 1.78748 6.18002 1.81248 6.26769 1.86248C6.35535 1.91248 6.42002 1.98748 6.46169 2.08748L7.39919 4.31248L9.82419 4.52498C9.94085 4.54164 10.0325 4.57914 10.0992 4.63748C10.1659 4.69581 10.2159 4.77081 10.2492 4.86248C10.2825 4.95414 10.2889 5.04798 10.2682 5.14398C10.2475 5.23998 10.1954 5.32531 10.1117 5.39998L8.27419 6.98748L8.82419 9.34998C8.84919 9.45831 8.84085 9.55631 8.79919 9.64398C8.75752 9.73164 8.69919 9.80448 8.62419 9.86248C8.54919 9.92048 8.46169 9.95381 8.36169 9.96247C8.26169 9.97114 8.16585 9.94614 8.07419 9.88748L5.99919 8.63748Z" fill="currentColor"/>
</svg>
