<svg width="24" height="24" viewBox="0 0 24 24" fill="none" xmlns="http://www.w3.org/2000/svg">
<path d="M12 5C16.1759 5.00001 19.8086 7.31966 21.6767 10.7354C22.1077 11.5234 22.1077 12.4767 21.6767 13.2646C19.8086 16.6803 16.1759 19 12 19C7.82406 19 4.19131 16.6803 2.32321 13.2646C1.89227 12.4766 1.89226 11.5233 2.32321 10.7354C4.19132 7.31966 7.82405 5 12 5ZM12 7C8.58275 7 5.60886 8.89631 4.07809 11.6953C3.97416 11.8853 3.97417 12.1147 4.07809 12.3047C5.60885 15.1037 8.58276 17 12 17C15.4172 17 18.3911 15.1037 19.9218 12.3047C20.0258 12.1147 20.0258 11.8853 19.9218 11.6953C18.3911 8.89631 15.4172 7.00001 12 7Z" fill="currentColor"/>
<path d="M14 12C14 10.8954 13.1046 10 12 10C10.8954 10 10 10.8954 10 12C10 13.1046 10.8954 14 12 14C13.1046 14 14 13.1046 14 12ZM16 12C16 14.2091 14.2091 16 12 16C9.79086 16 8 14.2091 8 12C8 9.79086 9.79086 8 12 8C14.2091 8 16 9.79086 16 12Z" fill="currentColor"/>
</svg>
