<svg width="940" height="804" viewBox="0 0 940 804" fill="none" xmlns="http://www.w3.org/2000/svg">
<path d="M582.421 613.29H608.156C631.182 613.29 650.144 620.15 650.144 644.846C650.144 668.171 631.182 676.403 608.156 676.403H582.421V613.29ZM608.156 727.167C667.752 727.167 716.513 705.215 716.513 644.846C716.513 583.106 669.107 561.154 608.156 561.154H395.752V613.29H413.699L385.255 681.891L342.589 613.29H362.229V561.154H236.264V613.29H265.385L350.039 739.515C343.267 749.119 328.367 753.236 312.114 747.747L310.759 718.935H257.935V790.28C274.189 798.512 298.569 804 318.886 804C362.229 804 400.154 793.024 435.37 721.679L486.84 613.29H513.343V749.119H486.254V799.884H610.865V747.747H582.421V727.167H608.156ZM688.069 332.027V279.891H602.738L525.533 415.72V332.027H543.141V279.891H437.493V332.027H456.455V467.857H437.493V519.993H522.824L600.029 386.908V467.857H582.421V519.993H688.069V467.857H667.752V332.027H688.069ZM834.352 332.027H851.96V373.188H786.945V332.027H805.908V279.891H700.259V332.027H719.222V467.857H700.259V519.993H805.908V467.857H786.945V423.952H851.96V467.857H834.352V519.993H940V467.857H919.683V332.027H940V279.891H834.352V332.027ZM345.389 467.857H312.882V450.02H334.553C395.504 450.02 434.784 417.092 434.784 363.584C434.784 311.447 394.15 279.891 334.553 279.891H222.133V333.399H245.159V467.857H222.133V519.993H345.389V467.857ZM312.882 332.027H325.072C350.807 332.027 364.352 343.003 364.352 364.956C364.352 386.908 350.807 397.884 325.072 397.884H312.882V332.027ZM728.703 561.154V614.662H754.438V749.119H728.703V799.884H854.669V749.119H822.161V614.662H883.112V640.73H934.582V561.154H728.703ZM132.738 648.276H93.4582V613.29H155.764V633.87H211.297V561.154H0V613.29H24.3804V747.747H0V799.884H132.738C186.916 799.884 231.614 781.705 231.614 724.08C231.614 666.456 189.625 648.276 132.738 648.276ZM131.383 747.747H93.4582V697.669H131.383C150.346 697.669 166.599 702.128 166.599 722.708C166.599 743.288 151.7 747.747 131.383 747.747ZM727.158 186.594L656.725 0H523.988V52.1365H541.596L490.126 183.85C444.074 186.594 423.175 168.758 416.402 131.713C440.783 117.993 465.163 87.8089 465.163 52.1365H493.607V0H381.186V52.1365H401.503C401.503 78.2048 382.541 93.2969 351.388 93.2969H327.008V52.1365H350.034V0H230.84V52.1365H259.284V186.594H230.84V238.73H347.325V186.594H327.008V145.433H354.097C364.933 183.85 386.604 214.034 415.048 226.382C444.846 238.73 455.506 238.73 536.774 238.73H583.584V186.594H561.913L567.331 168.758H645.89L651.308 186.594H632.345V238.73H751.538V186.594H727.158ZM584.939 116.621L605.256 58.9966L626.927 116.621H584.939ZM211.297 159.154H158.473V186.594H93.4582V144.061H154.409V91.9249H93.4582V52.1365H158.473V79.5768H211.297V0H0V52.1365H25.7349V186.594H0V238.73H211.297V159.154ZM712.45 0V78.2048H762.565V52.1365H791.009V186.594H766.628V238.73H885.821V186.594H860.086V52.1365H888.53V78.2048H940V0H712.45ZM211.297 440.416H158.473V467.857H93.4582V425.324H154.409V373.188H93.4582V332.027H158.473V359.468H211.297V279.891H0V332.027H25.7349V467.857H0V519.993H211.297V440.416Z" fill="#F1F7F9"/>
</svg>
