<svg width="893" height="1518" viewBox="0 0 893 1518" fill="none" xmlns="http://www.w3.org/2000/svg">
<rect x="0.533203" y="108.911" width="28.0102" height="1300" fill="white"/>
<rect x="48.543" y="108.911" width="28.0102" height="1300" fill="white"/>
<rect x="96.5527" y="108.911" width="28.0102" height="1300" fill="white"/>
<rect x="144.564" y="108.911" width="28.0102" height="1300" fill="white"/>
<rect x="192.574" y="108.911" width="28.0102" height="1300" fill="white"/>
<rect x="240.584" y="108.911" width="28.0102" height="1300" fill="white"/>
<rect x="288.594" y="108.911" width="28.0102" height="1300" fill="white"/>
<rect x="336.605" y="108.911" width="28.0102" height="1300" fill="white"/>
<rect x="384.615" y="108.911" width="28.0102" height="1300" fill="white"/>
<rect x="432.625" y="108.911" width="28.0102" height="1300" fill="white"/>
<rect x="480.635" y="108.911" width="28.0102" height="1300" fill="white"/>
<rect x="528.646" y="108.911" width="28.0102" height="1300" fill="white"/>
<rect x="576.656" y="108.911" width="28.0102" height="1300" fill="white"/>
<rect x="624.666" y="108.911" width="28.0102" height="1300" fill="white"/>
<rect x="672.676" y="108.911" width="28.0102" height="1300" fill="white"/>
<rect x="720.688" y="108.911" width="28.0102" height="1300" fill="white"/>
<rect x="768.697" y="108.911" width="28.0102" height="1300" fill="white"/>
<rect x="816.707" y="108.911" width="28.0102" height="1300" fill="white"/>
<rect x="864.717" y="108.911" width="28.0102" height="1300" fill="white"/>
</svg>
