<svg width="14" height="15" viewBox="0 0 14 15" fill="none" xmlns="http://www.w3.org/2000/svg">
<path d="M13.5 11.001C13.4997 13.1177 11.7838 14.8338 9.66699 14.834H4.33301C2.21623 14.8338 0.500264 13.1177 0.5 11.001V6.16699H13.5V11.001ZM3.33398 10.501C3.05784 10.501 2.83398 10.7248 2.83398 11.001C2.83425 11.2769 3.058 11.501 3.33398 11.501H4.00098L4.10156 11.4902C4.32916 11.4436 4.50075 11.2423 4.50098 11.001C4.50098 10.7594 4.32933 10.5574 4.10156 10.5107L4.00098 10.501H3.33398ZM6.66699 10.501C6.391 10.5012 6.16699 10.7249 6.16699 11.001C6.16726 11.2768 6.39116 11.5008 6.66699 11.501H7.33398L7.43457 11.4902C7.66216 11.4436 7.83375 11.2423 7.83398 11.001C7.83398 10.7594 7.66233 10.5574 7.43457 10.5107L7.33398 10.501H6.66699ZM10.001 10.501C9.72483 10.501 9.50098 10.7248 9.50098 11.001C9.50124 11.2769 9.725 11.501 10.001 11.501H10.668L10.7686 11.4902C10.996 11.4434 11.1677 11.2422 11.168 11.001C11.168 10.7595 10.9962 10.5575 10.7686 10.5107L10.668 10.501H10.001ZM3.33398 7.83398C3.0579 7.83398 2.83407 8.05792 2.83398 8.33398C2.83425 8.6099 3.058 8.83398 3.33398 8.83398H4.00098L4.10156 8.82324C4.32914 8.77657 4.50075 8.57531 4.50098 8.33398C4.5009 8.09249 4.32927 7.89042 4.10156 7.84375L4.00098 7.83398H3.33398ZM6.66699 7.83398C6.39105 7.83416 6.16708 8.05803 6.16699 8.33398C6.16726 8.60979 6.39116 8.83381 6.66699 8.83398H7.33398L7.43457 8.82324C7.66216 8.77658 7.83375 8.57533 7.83398 8.33398C7.83391 8.09249 7.66228 7.89042 7.43457 7.84375L7.33398 7.83398H6.66699ZM10.001 7.83398C9.72489 7.83398 9.50107 8.05792 9.50098 8.33398C9.50124 8.6099 9.725 8.83398 10.001 8.83398H10.668L10.7686 8.82324C10.996 8.77645 11.1677 8.5752 11.168 8.33398C11.1679 8.09259 10.9961 7.89053 10.7686 7.84375L10.668 7.83398H10.001ZM9.5 3.33398L9.51074 3.43457C9.55738 3.66226 9.75855 3.83383 10 3.83398C10.2415 3.83383 10.4437 3.66236 10.4902 3.43457L10.5 3.33398V1.92578C12.0571 2.27114 13.2576 3.56282 13.4668 5.16699H0.533203C0.742353 3.56282 1.94292 2.27114 3.5 1.92578V3.33398L3.51074 3.43457C3.55738 3.66226 3.75855 3.83383 4 3.83398C4.24151 3.83383 4.44367 3.66236 4.49023 3.43457L4.5 3.33398V1.83398H9.5V3.33398ZM10 0.833984C10.276 0.83416 10.5 1.05795 10.5 1.33398V1.92578C10.2318 1.86629 9.95316 1.83401 9.66699 1.83398H9.5V1.33398C9.5 1.05795 9.72401 0.83416 10 0.833984ZM4 0.833984C4.27599 0.83416 4.5 1.05795 4.5 1.33398V1.83398H4.33301C4.04684 1.83401 3.76824 1.86629 3.5 1.92578V1.33398C3.5 1.05795 3.72401 0.83416 4 0.833984Z" fill="currentColor"/>
</svg>
