<svg width="24" height="24" viewBox="0 0 24 24" fill="none" xmlns="http://www.w3.org/2000/svg">
<path d="M18 11C18 7.13396 14.866 3.99996 11 3.99996C7.13401 3.99996 4 7.13396 4 11C4 14.8659 7.13401 18 11 18C14.866 18 18 14.8659 18 11ZM20 11C20 15.9705 15.9706 20 11 20C6.02944 20 2 15.9705 2 11C2 6.02939 6.02944 1.99996 11 1.99996C15.9706 1.99996 20 6.02939 20 11Z" fill="currentColor"/>
<path d="M15.7929 16.2509C16.1834 15.8604 16.8164 15.8604 17.2069 16.2509L22.2069 21.2509C22.5975 21.6415 22.5975 22.2745 22.2069 22.665C21.8164 23.0555 21.1834 23.0555 20.7929 22.665L15.7929 17.665C15.4024 17.2745 15.4024 16.6415 15.7929 16.2509Z" fill="currentColor"/>
</svg>
