<svg width="257" height="919" viewBox="0 0 257 919" fill="none" xmlns="http://www.w3.org/2000/svg">
<path fill-rule="evenodd" clip-rule="evenodd" d="M-202 0C-171.767 0 -141.549 0 -111.316 0C-125.77 25.0875 -140.182 50.1511 -154.565 75.191C-155.961 77.0475 -157.356 77.0475 -158.751 75.191C-173.19 50.0892 -187.602 25.0255 -202 0Z" fill="url(#paint0_linear_4184_40314)" fill-opacity="0.5"/>
<path fill-rule="evenodd" clip-rule="evenodd" d="M-109.921 0C-79.6888 0 -49.4702 0 -19.2376 0C-33.6912 25.0875 -48.103 50.1511 -62.4868 75.191C-63.8819 77.0475 -65.2771 77.0475 -66.6722 75.191C-81.1118 50.0892 -95.5236 25.0255 -109.921 0Z" fill="url(#paint1_linear_4184_40314)" fill-opacity="0.5"/>
<path fill-rule="evenodd" clip-rule="evenodd" d="M-17.8427 0C12.3899 0 42.6085 0 72.841 0C58.3875 25.0875 43.9757 50.1511 29.5919 75.191C28.1967 77.0475 26.8016 77.0475 25.4065 75.191C10.9669 50.0892 -3.44489 25.0255 -17.8427 0Z" fill="url(#paint2_linear_4184_40314)" fill-opacity="0.5"/>
<path fill-rule="evenodd" clip-rule="evenodd" d="M74.236 0C104.469 0 134.687 0 164.92 0C150.466 25.0875 136.054 50.1511 121.671 75.191C120.275 77.0475 118.88 77.0475 117.485 75.191C103.073 50.1273 88.6478 25.0637 74.236 0Z" fill="url(#paint3_linear_4184_40314)" fill-opacity="0.5"/>
<path fill-rule="evenodd" clip-rule="evenodd" d="M166.316 0C196.549 0 226.767 0 257 0C242.546 25.0875 228.135 50.1511 213.751 75.191C212.356 77.0475 210.961 77.0475 209.565 75.191C195.154 50.1273 180.728 25.0637 166.316 0Z" fill="url(#paint4_linear_4184_40314)" fill-opacity="0.5"/>
<path fill-rule="evenodd" clip-rule="evenodd" d="M-202 76.5833C-171.767 76.5833 -141.549 76.5833 -111.316 76.5833C-125.77 101.671 -140.182 126.734 -154.565 151.774C-155.961 153.631 -157.356 153.631 -158.751 151.774C-173.19 126.673 -187.602 101.609 -202 76.5833Z" fill="url(#paint5_linear_4184_40314)" fill-opacity="0.5"/>
<path fill-rule="evenodd" clip-rule="evenodd" d="M-109.921 76.5833C-79.6888 76.5833 -49.4702 76.5833 -19.2376 76.5833C-33.6912 101.671 -48.103 126.734 -62.4868 151.774C-63.8819 153.631 -65.2771 153.631 -66.6722 151.774C-81.1118 126.673 -95.5236 101.609 -109.921 76.5833Z" fill="url(#paint6_linear_4184_40314)" fill-opacity="0.5"/>
<path fill-rule="evenodd" clip-rule="evenodd" d="M-17.8427 76.5833C12.3899 76.5833 42.6085 76.5833 72.841 76.5833C58.3875 101.671 43.9757 126.734 29.5919 151.774C28.1967 153.631 26.8016 153.631 25.4065 151.774C10.9669 126.673 -3.44489 101.609 -17.8427 76.5833Z" fill="url(#paint7_linear_4184_40314)" fill-opacity="0.5"/>
<path fill-rule="evenodd" clip-rule="evenodd" d="M74.236 76.5833C104.469 76.5833 134.687 76.5833 164.92 76.5833C150.466 101.671 136.054 126.734 121.671 151.774C120.275 153.631 118.88 153.631 117.485 151.774C103.073 126.711 88.6478 101.647 74.236 76.5833Z" fill="url(#paint8_linear_4184_40314)" fill-opacity="0.5"/>
<path fill-rule="evenodd" clip-rule="evenodd" d="M166.316 76.5833C196.549 76.5833 226.767 76.5833 257 76.5833C242.546 101.671 228.135 126.734 213.751 151.774C212.356 153.631 210.961 153.631 209.565 151.774C195.154 126.711 180.728 101.647 166.316 76.5833Z" fill="url(#paint9_linear_4184_40314)" fill-opacity="0.5"/>
<path fill-rule="evenodd" clip-rule="evenodd" d="M-202 153.167C-171.767 153.167 -141.549 153.167 -111.316 153.167C-125.77 178.254 -140.182 203.318 -154.565 228.358C-155.961 230.214 -157.356 230.214 -158.751 228.358C-173.19 203.256 -187.602 178.192 -202 153.167Z" fill="url(#paint10_linear_4184_40314)" fill-opacity="0.5"/>
<path fill-rule="evenodd" clip-rule="evenodd" d="M-109.921 153.167C-79.6888 153.167 -49.4702 153.167 -19.2376 153.167C-33.6912 178.254 -48.103 203.318 -62.4868 228.358C-63.8819 230.214 -65.2771 230.214 -66.6722 228.358C-81.1118 203.256 -95.5236 178.192 -109.921 153.167Z" fill="url(#paint11_linear_4184_40314)" fill-opacity="0.5"/>
<path fill-rule="evenodd" clip-rule="evenodd" d="M-17.8427 153.167C12.3899 153.167 42.6085 153.167 72.841 153.167C58.3875 178.254 43.9757 203.318 29.5919 228.358C28.1967 230.214 26.8016 230.214 25.4065 228.358C10.9669 203.256 -3.44489 178.192 -17.8427 153.167Z" fill="url(#paint12_linear_4184_40314)" fill-opacity="0.5"/>
<path fill-rule="evenodd" clip-rule="evenodd" d="M74.236 153.167C104.469 153.167 134.687 153.167 164.92 153.167C150.466 178.254 136.054 203.318 121.671 228.358C120.275 230.214 118.88 230.214 117.485 228.358C103.073 203.294 88.6478 178.23 74.236 153.167Z" fill="url(#paint13_linear_4184_40314)" fill-opacity="0.5"/>
<path fill-rule="evenodd" clip-rule="evenodd" d="M166.316 153.167C196.549 153.167 226.767 153.167 257 153.167C242.546 178.254 228.135 203.318 213.751 228.358C212.356 230.214 210.961 230.214 209.565 228.358C195.154 203.294 180.728 178.23 166.316 153.167Z" fill="url(#paint14_linear_4184_40314)" fill-opacity="0.5"/>
<path fill-rule="evenodd" clip-rule="evenodd" d="M-202 229.75C-171.767 229.75 -141.549 229.75 -111.316 229.75C-125.77 254.837 -140.182 279.901 -154.565 304.941C-155.961 306.798 -157.356 306.798 -158.751 304.941C-173.19 279.839 -187.602 254.776 -202 229.75Z" fill="url(#paint15_linear_4184_40314)" fill-opacity="0.5"/>
<path fill-rule="evenodd" clip-rule="evenodd" d="M-109.921 229.75C-79.6888 229.75 -49.4702 229.75 -19.2376 229.75C-33.6912 254.837 -48.103 279.901 -62.4868 304.941C-63.8819 306.798 -65.2771 306.798 -66.6722 304.941C-81.1118 279.839 -95.5236 254.776 -109.921 229.75Z" fill="url(#paint16_linear_4184_40314)" fill-opacity="0.5"/>
<path fill-rule="evenodd" clip-rule="evenodd" d="M-17.8427 229.75C12.3899 229.75 42.6085 229.75 72.841 229.75C58.3875 254.837 43.9757 279.901 29.5919 304.941C28.1967 306.798 26.8016 306.798 25.4065 304.941C10.9669 279.839 -3.44489 254.776 -17.8427 229.75Z" fill="url(#paint17_linear_4184_40314)" fill-opacity="0.5"/>
<path fill-rule="evenodd" clip-rule="evenodd" d="M74.236 229.75C104.469 229.75 134.687 229.75 164.92 229.75C150.466 254.837 136.054 279.901 121.671 304.941C120.275 306.798 118.88 306.798 117.485 304.941C103.073 279.877 88.6478 254.814 74.236 229.75Z" fill="url(#paint18_linear_4184_40314)" fill-opacity="0.5"/>
<path fill-rule="evenodd" clip-rule="evenodd" d="M166.316 229.75C196.549 229.75 226.767 229.75 257 229.75C242.546 254.837 228.135 279.901 213.751 304.941C212.356 306.798 210.961 306.798 209.565 304.941C195.154 279.877 180.728 254.814 166.316 229.75Z" fill="url(#paint19_linear_4184_40314)" fill-opacity="0.5"/>
<path fill-rule="evenodd" clip-rule="evenodd" d="M-202 306.333C-171.767 306.333 -141.549 306.333 -111.316 306.333C-125.77 331.421 -140.182 356.484 -154.565 381.524C-155.961 383.381 -157.356 383.381 -158.751 381.524C-173.19 356.423 -187.602 331.359 -202 306.333Z" fill="url(#paint20_linear_4184_40314)" fill-opacity="0.5"/>
<path fill-rule="evenodd" clip-rule="evenodd" d="M-109.921 306.333C-79.6888 306.333 -49.4702 306.333 -19.2376 306.333C-33.6912 331.421 -48.103 356.484 -62.4868 381.524C-63.8819 383.381 -65.2771 383.381 -66.6722 381.524C-81.1118 356.423 -95.5236 331.359 -109.921 306.333Z" fill="url(#paint21_linear_4184_40314)" fill-opacity="0.5"/>
<path fill-rule="evenodd" clip-rule="evenodd" d="M-17.8427 306.333C12.3899 306.333 42.6085 306.333 72.841 306.333C58.3875 331.421 43.9757 356.484 29.5919 381.524C28.1967 383.381 26.8016 383.381 25.4065 381.524C10.9669 356.423 -3.44489 331.359 -17.8427 306.333Z" fill="url(#paint22_linear_4184_40314)" fill-opacity="0.5"/>
<path fill-rule="evenodd" clip-rule="evenodd" d="M74.236 306.333C104.469 306.333 134.687 306.333 164.92 306.333C150.466 331.421 136.054 356.484 121.671 381.524C120.275 383.381 118.88 383.381 117.485 381.524C103.073 356.461 88.6478 331.397 74.236 306.333Z" fill="url(#paint23_linear_4184_40314)" fill-opacity="0.5"/>
<path fill-rule="evenodd" clip-rule="evenodd" d="M166.316 306.333C196.549 306.333 226.767 306.333 257 306.333C242.546 331.421 228.135 356.484 213.751 381.524C212.356 383.381 210.961 383.381 209.565 381.524C195.154 356.461 180.728 331.397 166.316 306.333Z" fill="url(#paint24_linear_4184_40314)" fill-opacity="0.5"/>
<path fill-rule="evenodd" clip-rule="evenodd" d="M-202 382.917C-171.767 382.917 -141.549 382.917 -111.316 382.917C-125.77 408.004 -140.182 433.068 -154.565 458.108C-155.961 459.964 -157.356 459.964 -158.751 458.108C-173.19 433.006 -187.602 407.942 -202 382.917Z" fill="url(#paint25_linear_4184_40314)" fill-opacity="0.5"/>
<path fill-rule="evenodd" clip-rule="evenodd" d="M-109.921 382.917C-79.6888 382.917 -49.4702 382.917 -19.2376 382.917C-33.6912 408.004 -48.103 433.068 -62.4868 458.108C-63.8819 459.964 -65.2771 459.964 -66.6722 458.108C-81.1118 433.006 -95.5236 407.942 -109.921 382.917Z" fill="url(#paint26_linear_4184_40314)" fill-opacity="0.5"/>
<path fill-rule="evenodd" clip-rule="evenodd" d="M-17.8427 382.917C12.3899 382.917 42.6085 382.917 72.841 382.917C58.3875 408.004 43.9757 433.068 29.5919 458.108C28.1967 459.964 26.8016 459.964 25.4065 458.108C10.9669 433.006 -3.44489 407.942 -17.8427 382.917Z" fill="url(#paint27_linear_4184_40314)" fill-opacity="0.5"/>
<path fill-rule="evenodd" clip-rule="evenodd" d="M74.236 382.917C104.469 382.917 134.687 382.917 164.92 382.917C150.466 408.004 136.054 433.068 121.671 458.108C120.275 459.964 118.88 459.964 117.485 458.108C103.073 433.044 88.6478 407.98 74.236 382.917Z" fill="url(#paint28_linear_4184_40314)" fill-opacity="0.5"/>
<path fill-rule="evenodd" clip-rule="evenodd" d="M166.316 382.917C196.549 382.917 226.767 382.917 257 382.917C242.546 408.004 228.135 433.068 213.751 458.108C212.356 459.964 210.961 459.964 209.565 458.108C195.154 433.044 180.728 407.98 166.316 382.917Z" fill="url(#paint29_linear_4184_40314)" fill-opacity="0.5"/>
<path fill-rule="evenodd" clip-rule="evenodd" d="M-202 459.5C-171.767 459.5 -141.549 459.5 -111.316 459.5C-125.77 484.588 -140.182 509.651 -154.565 534.691C-155.961 536.548 -157.356 536.548 -158.751 534.691C-173.19 509.589 -187.602 484.526 -202 459.5Z" fill="url(#paint30_linear_4184_40314)" fill-opacity="0.5"/>
<path fill-rule="evenodd" clip-rule="evenodd" d="M-109.921 459.5C-79.6888 459.5 -49.4702 459.5 -19.2376 459.5C-33.6912 484.588 -48.103 509.651 -62.4868 534.691C-63.8819 536.548 -65.2771 536.548 -66.6722 534.691C-81.1118 509.589 -95.5236 484.526 -109.921 459.5Z" fill="url(#paint31_linear_4184_40314)" fill-opacity="0.5"/>
<path fill-rule="evenodd" clip-rule="evenodd" d="M-17.8427 459.5C12.3899 459.5 42.6085 459.5 72.841 459.5C58.3875 484.588 43.9757 509.651 29.5919 534.691C28.1967 536.548 26.8016 536.548 25.4065 534.691C10.9669 509.589 -3.44489 484.526 -17.8427 459.5Z" fill="url(#paint32_linear_4184_40314)" fill-opacity="0.5"/>
<path fill-rule="evenodd" clip-rule="evenodd" d="M74.236 459.5C104.469 459.5 134.687 459.5 164.92 459.5C150.466 484.588 136.054 509.651 121.671 534.691C120.275 536.548 118.88 536.548 117.485 534.691C103.073 509.627 88.6478 484.564 74.236 459.5Z" fill="url(#paint33_linear_4184_40314)" fill-opacity="0.5"/>
<path fill-rule="evenodd" clip-rule="evenodd" d="M166.316 459.5C196.549 459.5 226.767 459.5 257 459.5C242.546 484.588 228.135 509.651 213.751 534.691C212.356 536.548 210.961 536.548 209.565 534.691C195.154 509.627 180.728 484.564 166.316 459.5Z" fill="url(#paint34_linear_4184_40314)" fill-opacity="0.5"/>
<path fill-rule="evenodd" clip-rule="evenodd" d="M-202 536.083C-171.767 536.083 -141.549 536.083 -111.316 536.083C-125.77 561.171 -140.182 586.234 -154.565 611.274C-155.961 613.131 -157.356 613.131 -158.751 611.274C-173.19 586.173 -187.602 561.109 -202 536.083Z" fill="url(#paint35_linear_4184_40314)" fill-opacity="0.5"/>
<path fill-rule="evenodd" clip-rule="evenodd" d="M-109.921 536.083C-79.6888 536.083 -49.4702 536.083 -19.2376 536.083C-33.6912 561.171 -48.103 586.234 -62.4868 611.274C-63.8819 613.131 -65.2771 613.131 -66.6722 611.274C-81.1118 586.173 -95.5236 561.109 -109.921 536.083Z" fill="url(#paint36_linear_4184_40314)" fill-opacity="0.5"/>
<path fill-rule="evenodd" clip-rule="evenodd" d="M-17.8427 536.083C12.3899 536.083 42.6085 536.083 72.841 536.083C58.3875 561.171 43.9757 586.234 29.5919 611.274C28.1967 613.131 26.8016 613.131 25.4065 611.274C10.9669 586.173 -3.44489 561.109 -17.8427 536.083Z" fill="url(#paint37_linear_4184_40314)" fill-opacity="0.5"/>
<path fill-rule="evenodd" clip-rule="evenodd" d="M74.236 536.083C104.469 536.083 134.687 536.083 164.92 536.083C150.466 561.171 136.054 586.234 121.671 611.274C120.275 613.131 118.88 613.131 117.485 611.274C103.073 586.211 88.6478 561.147 74.236 536.083Z" fill="url(#paint38_linear_4184_40314)" fill-opacity="0.5"/>
<path fill-rule="evenodd" clip-rule="evenodd" d="M166.316 536.083C196.549 536.083 226.767 536.083 257 536.083C242.546 561.171 228.135 586.234 213.751 611.274C212.356 613.131 210.961 613.131 209.565 611.274C195.154 586.211 180.728 561.147 166.316 536.083Z" fill="url(#paint39_linear_4184_40314)" fill-opacity="0.5"/>
<path fill-rule="evenodd" clip-rule="evenodd" d="M-202 612.667C-171.767 612.667 -141.549 612.667 -111.316 612.667C-125.77 637.754 -140.182 662.818 -154.565 687.858C-155.961 689.714 -157.356 689.714 -158.751 687.858C-173.19 662.756 -187.602 637.692 -202 612.667Z" fill="url(#paint40_linear_4184_40314)" fill-opacity="0.5"/>
<path fill-rule="evenodd" clip-rule="evenodd" d="M-109.921 612.667C-79.6888 612.667 -49.4702 612.667 -19.2376 612.667C-33.6912 637.754 -48.103 662.818 -62.4868 687.858C-63.8819 689.714 -65.2771 689.714 -66.6722 687.858C-81.1118 662.756 -95.5236 637.692 -109.921 612.667Z" fill="url(#paint41_linear_4184_40314)" fill-opacity="0.5"/>
<path fill-rule="evenodd" clip-rule="evenodd" d="M-17.8427 612.667C12.3899 612.667 42.6085 612.667 72.841 612.667C58.3875 637.754 43.9757 662.818 29.5919 687.858C28.1967 689.714 26.8016 689.714 25.4065 687.858C10.9669 662.756 -3.44489 637.692 -17.8427 612.667Z" fill="url(#paint42_linear_4184_40314)" fill-opacity="0.5"/>
<path fill-rule="evenodd" clip-rule="evenodd" d="M74.236 612.667C104.469 612.667 134.687 612.667 164.92 612.667C150.466 637.754 136.054 662.818 121.671 687.858C120.275 689.714 118.88 689.714 117.485 687.858C103.073 662.794 88.6478 637.73 74.236 612.667Z" fill="url(#paint43_linear_4184_40314)" fill-opacity="0.5"/>
<path fill-rule="evenodd" clip-rule="evenodd" d="M166.316 612.667C196.549 612.667 226.767 612.667 257 612.667C242.546 637.754 228.135 662.818 213.751 687.858C212.356 689.714 210.961 689.714 209.565 687.858C195.154 662.794 180.728 637.73 166.316 612.667Z" fill="url(#paint44_linear_4184_40314)" fill-opacity="0.5"/>
<path fill-rule="evenodd" clip-rule="evenodd" d="M-202 689.25C-171.767 689.25 -141.549 689.25 -111.316 689.25C-125.77 714.338 -140.182 739.401 -154.565 764.441C-155.961 766.298 -157.356 766.298 -158.751 764.441C-173.19 739.339 -187.602 714.276 -202 689.25Z" fill="url(#paint45_linear_4184_40314)" fill-opacity="0.5"/>
<path fill-rule="evenodd" clip-rule="evenodd" d="M-109.921 689.25C-79.6888 689.25 -49.4702 689.25 -19.2376 689.25C-33.6912 714.338 -48.103 739.401 -62.4868 764.441C-63.8819 766.298 -65.2771 766.298 -66.6722 764.441C-81.1118 739.339 -95.5236 714.276 -109.921 689.25Z" fill="url(#paint46_linear_4184_40314)" fill-opacity="0.5"/>
<path fill-rule="evenodd" clip-rule="evenodd" d="M-17.8427 689.25C12.3899 689.25 42.6085 689.25 72.841 689.25C58.3875 714.338 43.9757 739.401 29.5919 764.441C28.1967 766.298 26.8016 766.298 25.4065 764.441C10.9669 739.339 -3.44489 714.276 -17.8427 689.25Z" fill="url(#paint47_linear_4184_40314)" fill-opacity="0.5"/>
<path fill-rule="evenodd" clip-rule="evenodd" d="M74.236 689.25C104.469 689.25 134.687 689.25 164.92 689.25C150.466 714.338 136.054 739.401 121.671 764.441C120.275 766.298 118.88 766.298 117.485 764.441C103.073 739.377 88.6478 714.314 74.236 689.25Z" fill="url(#paint48_linear_4184_40314)" fill-opacity="0.5"/>
<path fill-rule="evenodd" clip-rule="evenodd" d="M166.316 689.25C196.549 689.25 226.767 689.25 257 689.25C242.546 714.338 228.135 739.401 213.751 764.441C212.356 766.298 210.961 766.298 209.565 764.441C195.154 739.377 180.728 714.314 166.316 689.25Z" fill="url(#paint49_linear_4184_40314)" fill-opacity="0.5"/>
<path fill-rule="evenodd" clip-rule="evenodd" d="M-202 765.833C-171.767 765.833 -141.549 765.833 -111.316 765.833C-125.77 790.921 -140.182 815.984 -154.565 841.024C-155.961 842.881 -157.356 842.881 -158.751 841.024C-173.19 815.923 -187.602 790.859 -202 765.833Z" fill="url(#paint50_linear_4184_40314)" fill-opacity="0.5"/>
<path fill-rule="evenodd" clip-rule="evenodd" d="M-109.921 765.833C-79.6888 765.833 -49.4702 765.833 -19.2376 765.833C-33.6912 790.921 -48.103 815.984 -62.4868 841.024C-63.8819 842.881 -65.2771 842.881 -66.6722 841.024C-81.1118 815.923 -95.5236 790.859 -109.921 765.833Z" fill="url(#paint51_linear_4184_40314)" fill-opacity="0.5"/>
<path fill-rule="evenodd" clip-rule="evenodd" d="M-17.8427 765.833C12.3899 765.833 42.6085 765.833 72.841 765.833C58.3875 790.921 43.9757 815.984 29.5919 841.024C28.1967 842.881 26.8016 842.881 25.4065 841.024C10.9669 815.923 -3.44489 790.859 -17.8427 765.833Z" fill="url(#paint52_linear_4184_40314)" fill-opacity="0.5"/>
<path fill-rule="evenodd" clip-rule="evenodd" d="M74.236 765.833C104.469 765.833 134.687 765.833 164.92 765.833C150.466 790.921 136.054 815.984 121.671 841.024C120.275 842.881 118.88 842.881 117.485 841.024C103.073 815.961 88.6478 790.897 74.236 765.833Z" fill="url(#paint53_linear_4184_40314)" fill-opacity="0.5"/>
<path fill-rule="evenodd" clip-rule="evenodd" d="M166.316 765.833C196.549 765.833 226.767 765.833 257 765.833C242.546 790.921 228.135 815.984 213.751 841.024C212.356 842.881 210.961 842.881 209.565 841.024C195.154 815.961 180.728 790.897 166.316 765.833Z" fill="url(#paint54_linear_4184_40314)" fill-opacity="0.5"/>
<path fill-rule="evenodd" clip-rule="evenodd" d="M-202 842.417C-171.767 842.417 -141.549 842.417 -111.316 842.417C-125.77 867.504 -140.182 892.568 -154.565 917.608C-155.961 919.464 -157.356 919.464 -158.751 917.608C-173.19 892.506 -187.602 867.442 -202 842.417Z" fill="url(#paint55_linear_4184_40314)" fill-opacity="0.5"/>
<path fill-rule="evenodd" clip-rule="evenodd" d="M-109.921 842.417C-79.6888 842.417 -49.4702 842.417 -19.2376 842.417C-33.6912 867.504 -48.103 892.568 -62.4868 917.608C-63.8819 919.464 -65.2771 919.464 -66.6722 917.608C-81.1118 892.506 -95.5236 867.442 -109.921 842.417Z" fill="url(#paint56_linear_4184_40314)" fill-opacity="0.5"/>
<path fill-rule="evenodd" clip-rule="evenodd" d="M-17.8427 842.417C12.3899 842.417 42.6085 842.417 72.841 842.417C58.3875 867.504 43.9757 892.568 29.5919 917.608C28.1967 919.464 26.8016 919.464 25.4065 917.608C10.9669 892.506 -3.44489 867.442 -17.8427 842.417Z" fill="url(#paint57_linear_4184_40314)" fill-opacity="0.5"/>
<path fill-rule="evenodd" clip-rule="evenodd" d="M74.236 842.417C104.469 842.417 134.687 842.417 164.92 842.417C150.466 867.504 136.054 892.568 121.671 917.608C120.275 919.464 118.88 919.464 117.485 917.608C103.073 892.544 88.6478 867.48 74.236 842.417Z" fill="url(#paint58_linear_4184_40314)" fill-opacity="0.5"/>
<path fill-rule="evenodd" clip-rule="evenodd" d="M166.316 842.417C196.549 842.417 226.767 842.417 257 842.417C242.546 867.504 228.135 892.568 213.751 917.608C212.356 919.464 210.961 919.464 209.565 917.608C195.154 892.544 180.728 867.48 166.316 842.417Z" fill="url(#paint59_linear_4184_40314)" fill-opacity="0.5"/>
<defs>
<linearGradient id="paint0_linear_4184_40314" x1="27.8312" y1="-128.602" x2="27.8312" y2="1175.6" gradientUnits="userSpaceOnUse">
<stop stop-color="#F0F6FA"/>
<stop offset="1" stop-color="white"/>
</linearGradient>
<linearGradient id="paint1_linear_4184_40314" x1="27.8312" y1="-128.602" x2="27.8312" y2="1175.6" gradientUnits="userSpaceOnUse">
<stop stop-color="#F0F6FA"/>
<stop offset="1" stop-color="white"/>
</linearGradient>
<linearGradient id="paint2_linear_4184_40314" x1="27.8312" y1="-128.602" x2="27.8312" y2="1175.6" gradientUnits="userSpaceOnUse">
<stop stop-color="#F0F6FA"/>
<stop offset="1" stop-color="white"/>
</linearGradient>
<linearGradient id="paint3_linear_4184_40314" x1="27.8312" y1="-128.602" x2="27.8312" y2="1175.6" gradientUnits="userSpaceOnUse">
<stop stop-color="#F0F6FA"/>
<stop offset="1" stop-color="white"/>
</linearGradient>
<linearGradient id="paint4_linear_4184_40314" x1="27.8312" y1="-128.602" x2="27.8312" y2="1175.6" gradientUnits="userSpaceOnUse">
<stop stop-color="#F0F6FA"/>
<stop offset="1" stop-color="white"/>
</linearGradient>
<linearGradient id="paint5_linear_4184_40314" x1="27.8312" y1="-128.602" x2="27.8312" y2="1175.6" gradientUnits="userSpaceOnUse">
<stop stop-color="#F0F6FA"/>
<stop offset="1" stop-color="white"/>
</linearGradient>
<linearGradient id="paint6_linear_4184_40314" x1="27.8312" y1="-128.602" x2="27.8312" y2="1175.6" gradientUnits="userSpaceOnUse">
<stop stop-color="#F0F6FA"/>
<stop offset="1" stop-color="white"/>
</linearGradient>
<linearGradient id="paint7_linear_4184_40314" x1="27.8312" y1="-128.602" x2="27.8312" y2="1175.6" gradientUnits="userSpaceOnUse">
<stop stop-color="#F0F6FA"/>
<stop offset="1" stop-color="white"/>
</linearGradient>
<linearGradient id="paint8_linear_4184_40314" x1="27.8312" y1="-128.602" x2="27.8312" y2="1175.6" gradientUnits="userSpaceOnUse">
<stop stop-color="#F0F6FA"/>
<stop offset="1" stop-color="white"/>
</linearGradient>
<linearGradient id="paint9_linear_4184_40314" x1="27.8312" y1="-128.602" x2="27.8312" y2="1175.6" gradientUnits="userSpaceOnUse">
<stop stop-color="#F0F6FA"/>
<stop offset="1" stop-color="white"/>
</linearGradient>
<linearGradient id="paint10_linear_4184_40314" x1="27.8312" y1="-128.602" x2="27.8312" y2="1175.6" gradientUnits="userSpaceOnUse">
<stop stop-color="#F0F6FA"/>
<stop offset="1" stop-color="white"/>
</linearGradient>
<linearGradient id="paint11_linear_4184_40314" x1="27.8312" y1="-128.602" x2="27.8312" y2="1175.6" gradientUnits="userSpaceOnUse">
<stop stop-color="#F0F6FA"/>
<stop offset="1" stop-color="white"/>
</linearGradient>
<linearGradient id="paint12_linear_4184_40314" x1="27.8312" y1="-128.602" x2="27.8312" y2="1175.6" gradientUnits="userSpaceOnUse">
<stop stop-color="#F0F6FA"/>
<stop offset="1" stop-color="white"/>
</linearGradient>
<linearGradient id="paint13_linear_4184_40314" x1="27.8312" y1="-128.602" x2="27.8312" y2="1175.6" gradientUnits="userSpaceOnUse">
<stop stop-color="#F0F6FA"/>
<stop offset="1" stop-color="white"/>
</linearGradient>
<linearGradient id="paint14_linear_4184_40314" x1="27.8312" y1="-128.602" x2="27.8312" y2="1175.6" gradientUnits="userSpaceOnUse">
<stop stop-color="#F0F6FA"/>
<stop offset="1" stop-color="white"/>
</linearGradient>
<linearGradient id="paint15_linear_4184_40314" x1="27.8312" y1="-128.602" x2="27.8312" y2="1175.6" gradientUnits="userSpaceOnUse">
<stop stop-color="#F0F6FA"/>
<stop offset="1" stop-color="white"/>
</linearGradient>
<linearGradient id="paint16_linear_4184_40314" x1="27.8312" y1="-128.602" x2="27.8312" y2="1175.6" gradientUnits="userSpaceOnUse">
<stop stop-color="#F0F6FA"/>
<stop offset="1" stop-color="white"/>
</linearGradient>
<linearGradient id="paint17_linear_4184_40314" x1="27.8312" y1="-128.602" x2="27.8312" y2="1175.6" gradientUnits="userSpaceOnUse">
<stop stop-color="#F0F6FA"/>
<stop offset="1" stop-color="white"/>
</linearGradient>
<linearGradient id="paint18_linear_4184_40314" x1="27.8312" y1="-128.602" x2="27.8312" y2="1175.6" gradientUnits="userSpaceOnUse">
<stop stop-color="#F0F6FA"/>
<stop offset="1" stop-color="white"/>
</linearGradient>
<linearGradient id="paint19_linear_4184_40314" x1="27.8312" y1="-128.602" x2="27.8312" y2="1175.6" gradientUnits="userSpaceOnUse">
<stop stop-color="#F0F6FA"/>
<stop offset="1" stop-color="white"/>
</linearGradient>
<linearGradient id="paint20_linear_4184_40314" x1="27.8312" y1="-128.602" x2="27.8312" y2="1175.6" gradientUnits="userSpaceOnUse">
<stop stop-color="#F0F6FA"/>
<stop offset="1" stop-color="white"/>
</linearGradient>
<linearGradient id="paint21_linear_4184_40314" x1="27.8312" y1="-128.602" x2="27.8312" y2="1175.6" gradientUnits="userSpaceOnUse">
<stop stop-color="#F0F6FA"/>
<stop offset="1" stop-color="white"/>
</linearGradient>
<linearGradient id="paint22_linear_4184_40314" x1="27.8312" y1="-128.602" x2="27.8312" y2="1175.6" gradientUnits="userSpaceOnUse">
<stop stop-color="#F0F6FA"/>
<stop offset="1" stop-color="white"/>
</linearGradient>
<linearGradient id="paint23_linear_4184_40314" x1="27.8312" y1="-128.602" x2="27.8312" y2="1175.6" gradientUnits="userSpaceOnUse">
<stop stop-color="#F0F6FA"/>
<stop offset="1" stop-color="white"/>
</linearGradient>
<linearGradient id="paint24_linear_4184_40314" x1="27.8312" y1="-128.602" x2="27.8312" y2="1175.6" gradientUnits="userSpaceOnUse">
<stop stop-color="#F0F6FA"/>
<stop offset="1" stop-color="white"/>
</linearGradient>
<linearGradient id="paint25_linear_4184_40314" x1="27.8312" y1="-128.602" x2="27.8312" y2="1175.6" gradientUnits="userSpaceOnUse">
<stop stop-color="#F0F6FA"/>
<stop offset="1" stop-color="white"/>
</linearGradient>
<linearGradient id="paint26_linear_4184_40314" x1="27.8312" y1="-128.602" x2="27.8312" y2="1175.6" gradientUnits="userSpaceOnUse">
<stop stop-color="#F0F6FA"/>
<stop offset="1" stop-color="white"/>
</linearGradient>
<linearGradient id="paint27_linear_4184_40314" x1="27.8312" y1="-128.602" x2="27.8312" y2="1175.6" gradientUnits="userSpaceOnUse">
<stop stop-color="#F0F6FA"/>
<stop offset="1" stop-color="white"/>
</linearGradient>
<linearGradient id="paint28_linear_4184_40314" x1="27.8312" y1="-128.602" x2="27.8312" y2="1175.6" gradientUnits="userSpaceOnUse">
<stop stop-color="#F0F6FA"/>
<stop offset="1" stop-color="white"/>
</linearGradient>
<linearGradient id="paint29_linear_4184_40314" x1="27.8312" y1="-128.602" x2="27.8312" y2="1175.6" gradientUnits="userSpaceOnUse">
<stop stop-color="#F0F6FA"/>
<stop offset="1" stop-color="white"/>
</linearGradient>
<linearGradient id="paint30_linear_4184_40314" x1="27.8312" y1="-128.602" x2="27.8312" y2="1175.6" gradientUnits="userSpaceOnUse">
<stop stop-color="#F0F6FA"/>
<stop offset="1" stop-color="white"/>
</linearGradient>
<linearGradient id="paint31_linear_4184_40314" x1="27.8312" y1="-128.602" x2="27.8312" y2="1175.6" gradientUnits="userSpaceOnUse">
<stop stop-color="#F0F6FA"/>
<stop offset="1" stop-color="white"/>
</linearGradient>
<linearGradient id="paint32_linear_4184_40314" x1="27.8312" y1="-128.602" x2="27.8312" y2="1175.6" gradientUnits="userSpaceOnUse">
<stop stop-color="#F0F6FA"/>
<stop offset="1" stop-color="white"/>
</linearGradient>
<linearGradient id="paint33_linear_4184_40314" x1="27.8312" y1="-128.602" x2="27.8312" y2="1175.6" gradientUnits="userSpaceOnUse">
<stop stop-color="#F0F6FA"/>
<stop offset="1" stop-color="white"/>
</linearGradient>
<linearGradient id="paint34_linear_4184_40314" x1="27.8312" y1="-128.602" x2="27.8312" y2="1175.6" gradientUnits="userSpaceOnUse">
<stop stop-color="#F0F6FA"/>
<stop offset="1" stop-color="white"/>
</linearGradient>
<linearGradient id="paint35_linear_4184_40314" x1="27.8312" y1="-128.602" x2="27.8312" y2="1175.6" gradientUnits="userSpaceOnUse">
<stop stop-color="#F0F6FA"/>
<stop offset="1" stop-color="white"/>
</linearGradient>
<linearGradient id="paint36_linear_4184_40314" x1="27.8312" y1="-128.602" x2="27.8312" y2="1175.6" gradientUnits="userSpaceOnUse">
<stop stop-color="#F0F6FA"/>
<stop offset="1" stop-color="white"/>
</linearGradient>
<linearGradient id="paint37_linear_4184_40314" x1="27.8312" y1="-128.602" x2="27.8312" y2="1175.6" gradientUnits="userSpaceOnUse">
<stop stop-color="#F0F6FA"/>
<stop offset="1" stop-color="white"/>
</linearGradient>
<linearGradient id="paint38_linear_4184_40314" x1="27.8312" y1="-128.602" x2="27.8312" y2="1175.6" gradientUnits="userSpaceOnUse">
<stop stop-color="#F0F6FA"/>
<stop offset="1" stop-color="white"/>
</linearGradient>
<linearGradient id="paint39_linear_4184_40314" x1="27.8312" y1="-128.602" x2="27.8312" y2="1175.6" gradientUnits="userSpaceOnUse">
<stop stop-color="#F0F6FA"/>
<stop offset="1" stop-color="white"/>
</linearGradient>
<linearGradient id="paint40_linear_4184_40314" x1="27.8312" y1="-128.602" x2="27.8312" y2="1175.6" gradientUnits="userSpaceOnUse">
<stop stop-color="#F0F6FA"/>
<stop offset="1" stop-color="white"/>
</linearGradient>
<linearGradient id="paint41_linear_4184_40314" x1="27.8312" y1="-128.602" x2="27.8312" y2="1175.6" gradientUnits="userSpaceOnUse">
<stop stop-color="#F0F6FA"/>
<stop offset="1" stop-color="white"/>
</linearGradient>
<linearGradient id="paint42_linear_4184_40314" x1="27.8312" y1="-128.602" x2="27.8312" y2="1175.6" gradientUnits="userSpaceOnUse">
<stop stop-color="#F0F6FA"/>
<stop offset="1" stop-color="white"/>
</linearGradient>
<linearGradient id="paint43_linear_4184_40314" x1="27.8312" y1="-128.602" x2="27.8312" y2="1175.6" gradientUnits="userSpaceOnUse">
<stop stop-color="#F0F6FA"/>
<stop offset="1" stop-color="white"/>
</linearGradient>
<linearGradient id="paint44_linear_4184_40314" x1="27.8312" y1="-128.602" x2="27.8312" y2="1175.6" gradientUnits="userSpaceOnUse">
<stop stop-color="#F0F6FA"/>
<stop offset="1" stop-color="white"/>
</linearGradient>
<linearGradient id="paint45_linear_4184_40314" x1="27.8312" y1="-128.602" x2="27.8312" y2="1175.6" gradientUnits="userSpaceOnUse">
<stop stop-color="#F0F6FA"/>
<stop offset="1" stop-color="white"/>
</linearGradient>
<linearGradient id="paint46_linear_4184_40314" x1="27.8312" y1="-128.602" x2="27.8312" y2="1175.6" gradientUnits="userSpaceOnUse">
<stop stop-color="#F0F6FA"/>
<stop offset="1" stop-color="white"/>
</linearGradient>
<linearGradient id="paint47_linear_4184_40314" x1="27.8312" y1="-128.602" x2="27.8312" y2="1175.6" gradientUnits="userSpaceOnUse">
<stop stop-color="#F0F6FA"/>
<stop offset="1" stop-color="white"/>
</linearGradient>
<linearGradient id="paint48_linear_4184_40314" x1="27.8312" y1="-128.602" x2="27.8312" y2="1175.6" gradientUnits="userSpaceOnUse">
<stop stop-color="#F0F6FA"/>
<stop offset="1" stop-color="white"/>
</linearGradient>
<linearGradient id="paint49_linear_4184_40314" x1="27.8312" y1="-128.602" x2="27.8312" y2="1175.6" gradientUnits="userSpaceOnUse">
<stop stop-color="#F0F6FA"/>
<stop offset="1" stop-color="white"/>
</linearGradient>
<linearGradient id="paint50_linear_4184_40314" x1="27.8312" y1="-128.602" x2="27.8312" y2="1175.6" gradientUnits="userSpaceOnUse">
<stop stop-color="#F0F6FA"/>
<stop offset="1" stop-color="white"/>
</linearGradient>
<linearGradient id="paint51_linear_4184_40314" x1="27.8312" y1="-128.602" x2="27.8312" y2="1175.6" gradientUnits="userSpaceOnUse">
<stop stop-color="#F0F6FA"/>
<stop offset="1" stop-color="white"/>
</linearGradient>
<linearGradient id="paint52_linear_4184_40314" x1="27.8312" y1="-128.602" x2="27.8312" y2="1175.6" gradientUnits="userSpaceOnUse">
<stop stop-color="#F0F6FA"/>
<stop offset="1" stop-color="white"/>
</linearGradient>
<linearGradient id="paint53_linear_4184_40314" x1="27.8312" y1="-128.602" x2="27.8312" y2="1175.6" gradientUnits="userSpaceOnUse">
<stop stop-color="#F0F6FA"/>
<stop offset="1" stop-color="white"/>
</linearGradient>
<linearGradient id="paint54_linear_4184_40314" x1="27.8312" y1="-128.602" x2="27.8312" y2="1175.6" gradientUnits="userSpaceOnUse">
<stop stop-color="#F0F6FA"/>
<stop offset="1" stop-color="white"/>
</linearGradient>
<linearGradient id="paint55_linear_4184_40314" x1="27.8312" y1="-128.602" x2="27.8312" y2="1175.6" gradientUnits="userSpaceOnUse">
<stop stop-color="#F0F6FA"/>
<stop offset="1" stop-color="white"/>
</linearGradient>
<linearGradient id="paint56_linear_4184_40314" x1="27.8312" y1="-128.602" x2="27.8312" y2="1175.6" gradientUnits="userSpaceOnUse">
<stop stop-color="#F0F6FA"/>
<stop offset="1" stop-color="white"/>
</linearGradient>
<linearGradient id="paint57_linear_4184_40314" x1="27.8312" y1="-128.602" x2="27.8312" y2="1175.6" gradientUnits="userSpaceOnUse">
<stop stop-color="#F0F6FA"/>
<stop offset="1" stop-color="white"/>
</linearGradient>
<linearGradient id="paint58_linear_4184_40314" x1="27.8312" y1="-128.602" x2="27.8312" y2="1175.6" gradientUnits="userSpaceOnUse">
<stop stop-color="#F0F6FA"/>
<stop offset="1" stop-color="white"/>
</linearGradient>
<linearGradient id="paint59_linear_4184_40314" x1="27.8312" y1="-128.602" x2="27.8312" y2="1175.6" gradientUnits="userSpaceOnUse">
<stop stop-color="#F0F6FA"/>
<stop offset="1" stop-color="white"/>
</linearGradient>
</defs>
</svg>
