<svg xmlns="http://www.w3.org/2000/svg" xmlns:xlink="http://www.w3.org/1999/xlink"><defs><style>
    .sprite-symbol-usage {display: none;}
    .sprite-symbol-usage:target {display: inline;}
  </style><symbol viewBox="0 0 8 6" fill="none" id="icon-arrow-down">
<path d="M4 5.5L7.03109 0.25H0.968911L4 5.5Z" fill="currentColor" />
</symbol><symbol viewBox="0 0 16 13" fill="none" id="icon-arrow-right">
<path d="M15.5 6.06218L5 12.1244V0L15.5 6.06218Z" fill="currentColor" />
<path d="M7.5 6.06218L0 10.3923V1.73205L7.5 6.06218Z" fill="currentColor" />
</symbol><symbol viewBox="0 0 9 6" fill="none" id="icon-chevrone">
<path d="M7.33614 0.87301C7.53141 0.677748 7.84791 0.677748 8.04318 0.87301C8.23844 1.06827 8.23844 1.38478 8.04318 1.58004L4.50021 5.12301C4.30495 5.31827 3.98844 5.31827 3.79318 5.12301L0.250207 1.58004L0.185754 1.50192C0.05759 1.30784 0.0793435 1.04387 0.250207 0.87301C0.421071 0.702146 0.685035 0.680393 0.879113 0.808557L0.957238 0.87301L4.14669 4.06246L7.33614 0.87301Z" fill="currentColor" />
</symbol><symbol viewBox="0 0 13 13" fill="none" id="icon-date">
<path d="M2.09961 1.7002V0.5C2.09961 0.279086 2.27909 0.0996094 2.5 0.0996094C2.72091 0.0996094 2.90039 0.279086 2.90039 0.5V1.7002C2.90029 1.92102 2.72085 2.09961 2.5 2.09961C2.27915 2.09961 2.09971 1.92102 2.09961 1.7002ZM9.2998 1.7002V0.5C9.2998 0.279086 9.47928 0.0996094 9.7002 0.0996094C9.92102 0.0997149 10.0996 0.279151 10.0996 0.5V1.7002C10.0995 1.92095 9.92095 2.0995 9.7002 2.09961C9.47935 2.09961 9.29991 1.92102 9.2998 1.7002Z" fill="currentColor" />
<path d="M3.70605 8.94971L3.81641 8.96143C4.06702 9.01272 4.25586 9.23471 4.25586 9.50049C4.25567 9.76608 4.06688 9.98729 3.81641 10.0386L3.70605 10.0503H3.7002C3.39657 10.0503 3.1506 9.80407 3.15039 9.50049C3.15039 9.19673 3.39644 8.94971 3.7002 8.94971H3.70605ZM6.10254 8.94971L6.21387 8.96143C6.46441 9.01277 6.65332 9.23476 6.65332 9.50049C6.65314 9.76603 6.46427 9.98724 6.21387 10.0386L6.10254 10.0503H6.09766C5.79403 10.0503 5.54806 9.80407 5.54785 9.50049C5.54785 9.19673 5.7939 8.94971 6.09766 8.94971H6.10254ZM3.70605 6.55029L3.81641 6.56104C4.06706 6.6123 4.25586 6.83429 4.25586 7.1001C4.25586 7.36591 4.06706 7.5879 3.81641 7.63916L3.70605 7.6499H3.7002C3.39644 7.6499 3.15039 7.40385 3.15039 7.1001C3.15039 6.79634 3.39644 6.55029 3.7002 6.55029H3.70605ZM6.10254 6.55029L6.21387 6.56104C6.46445 6.61235 6.65332 6.83434 6.65332 7.1001C6.65332 7.36585 6.46445 7.58784 6.21387 7.63916L6.10254 7.6499H6.09766C5.7939 7.6499 5.54785 7.40385 5.54785 7.1001C5.54785 6.79634 5.7939 6.55029 6.09766 6.55029H6.10254ZM8.5 6.55029L8.61133 6.56104C8.86184 6.61241 9.0498 6.83439 9.0498 7.1001C9.0498 7.3658 8.86184 7.58779 8.61133 7.63916L8.5 7.6499H8.49512C8.19136 7.6499 7.94434 7.40385 7.94434 7.1001C7.94434 6.79634 8.19136 6.55029 8.49512 6.55029H8.5Z" fill="currentColor" />
<path d="M11.2002 3.75049L11.2705 3.75732C11.43 3.78996 11.5498 3.93096 11.5498 4.1001C11.5498 4.26924 11.43 4.41024 11.2705 4.44287L11.2002 4.44971H1C0.8067 4.44971 0.650391 4.2934 0.650391 4.1001C0.650391 3.9068 0.8067 3.75049 1 3.75049H11.2002Z" fill="currentColor" />
<path d="M11.4004 6.646C11.4004 5.32843 11.3997 4.37748 11.3096 3.65283C11.2205 2.93689 11.0503 2.50259 10.7559 2.18408C10.4654 1.87003 10.0757 1.69139 9.42773 1.59717C8.76468 1.50079 7.89127 1.50049 6.66992 1.50049H5.53027C4.30902 1.50049 3.43647 1.50081 2.77344 1.59717C2.12529 1.69137 1.73586 1.86998 1.44531 2.18408C1.15072 2.50261 0.980656 2.93675 0.891602 3.65283C0.801491 4.37748 0.800781 5.3284 0.800781 6.646V6.95459C0.800781 8.27203 0.801489 9.22316 0.891602 9.94775C0.980675 10.6637 1.15071 11.098 1.44531 11.4165C1.73584 11.7305 2.12539 11.9082 2.77344 12.0024C3.43648 12.0988 4.30898 12.1001 5.53027 12.1001H6.66992C7.89127 12.1001 8.76468 12.0988 9.42773 12.0024C10.0756 11.9082 10.4654 11.7305 10.7559 11.4165C11.0504 11.098 11.2205 10.6637 11.3096 9.94775C11.3997 9.22316 11.4004 8.27203 11.4004 6.95459V6.646ZM12.2002 6.95459C12.2002 8.25109 12.2012 9.26091 12.1035 10.0464C12.0048 10.8404 11.7993 11.4659 11.3428 11.9595C10.882 12.4576 10.2908 12.6856 9.54199 12.7944C8.80814 12.901 7.86664 12.8999 6.66992 12.8999H5.53027C4.33337 12.8999 3.39209 12.9011 2.6582 12.7944C1.90953 12.6856 1.31907 12.4574 0.858398 11.9595C0.401814 11.4659 0.19642 10.8404 0.0976562 10.0464C-2.82004e-05 9.26091 -1.62498e-07 8.25109 5.96611e-10 6.95459V6.646C-1.70749e-08 5.34941 -1.48192e-05 4.33973 0.0976562 3.5542C0.196407 2.76015 0.40181 2.13475 0.858398 1.64111C1.31908 1.14308 1.90948 0.915003 2.6582 0.806152C3.39209 0.699484 4.33337 0.699707 5.53027 0.699707H6.66992C7.86667 0.699707 8.80813 0.699535 9.54199 0.806152C10.2908 0.914992 10.882 1.14303 11.3428 1.64111C11.7992 2.13472 12.0048 2.76025 12.1035 3.5542C12.2012 4.33972 12.2002 5.34944 12.2002 6.646V6.95459Z" fill="currentColor" />
<path d="M11.501 3.69971L11.582 3.7085C11.7642 3.74591 11.9014 3.9069 11.9014 4.1001C11.9014 4.2933 11.7642 4.45429 11.582 4.4917L11.501 4.50049H0.701172C0.480258 4.50049 0.300781 4.32101 0.300781 4.1001C0.300781 3.87918 0.480258 3.69971 0.701172 3.69971H11.501Z" fill="currentColor" />
</symbol><symbol viewBox="0 0 24 24" fill="none" id="icon-eye">
<path d="M12 5C16.1759 5.00001 19.8086 7.31966 21.6767 10.7354C22.1077 11.5234 22.1077 12.4767 21.6767 13.2646C19.8086 16.6803 16.1759 19 12 19C7.82406 19 4.19131 16.6803 2.32321 13.2646C1.89227 12.4766 1.89226 11.5233 2.32321 10.7354C4.19132 7.31966 7.82405 5 12 5ZM12 7C8.58275 7 5.60886 8.89631 4.07809 11.6953C3.97416 11.8853 3.97417 12.1147 4.07809 12.3047C5.60885 15.1037 8.58276 17 12 17C15.4172 17 18.3911 15.1037 19.9218 12.3047C20.0258 12.1147 20.0258 11.8853 19.9218 11.6953C18.3911 8.89631 15.4172 7.00001 12 7Z" fill="currentColor" />
<path d="M14 12C14 10.8954 13.1046 10 12 10C10.8954 10 10 10.8954 10 12C10 13.1046 10.8954 14 12 14C13.1046 14 14 13.1046 14 12ZM16 12C16 14.2091 14.2091 16 12 16C9.79086 16 8 14.2091 8 12C8 9.79086 9.79086 8 12 8C14.2091 8 16 9.79086 16 12Z" fill="currentColor" />
</symbol><symbol viewBox="0 0 16 17" fill="none" id="icon-location">
<path fill-rule="evenodd" clip-rule="evenodd" d="M2.16797 7.44455C2.16797 4.24904 4.78427 1.66748 8.00059 1.66748C11.2169 1.66748 13.8332 4.24904 13.8332 7.44455C13.8332 9.432 12.6742 11.3935 11.4459 12.8214C10.8243 13.5439 10.1645 14.154 9.58257 14.5878C9.29206 14.8043 9.01284 14.9831 8.76081 15.11C8.52454 15.229 8.25472 15.3325 8.00059 15.3325C7.74646 15.3325 7.47664 15.229 7.24037 15.11C6.98834 14.9831 6.70912 14.8043 6.41861 14.5878C5.83666 14.154 5.1769 13.5439 4.5553 12.8214C3.32697 11.3935 2.16797 9.432 2.16797 7.44455ZM7.99996 9.16752C6.89539 9.16752 5.99996 8.27209 5.99996 7.16752C5.99996 6.06295 6.89539 5.16752 7.99996 5.16752C9.10453 5.16752 9.99996 6.06295 9.99996 7.16752C9.99996 8.27209 9.10453 9.16752 7.99996 9.16752Z" fill="currentColor" />
</symbol><symbol viewBox="0 0 16 13" fill="none" id="icon-polygon-arrow">
<path d="M8 13L16 -4.76837e-07H0L8 13Z" fill="currentColor" />
</symbol><symbol viewBox="0 0 24 24" fill="none" id="icon-search">
<path d="M18 11C18 7.13396 14.866 3.99996 11 3.99996C7.13401 3.99996 4 7.13396 4 11C4 14.8659 7.13401 18 11 18C14.866 18 18 14.8659 18 11ZM20 11C20 15.9705 15.9706 20 11 20C6.02944 20 2 15.9705 2 11C2 6.02939 6.02944 1.99996 11 1.99996C15.9706 1.99996 20 6.02939 20 11Z" fill="currentColor" />
<path d="M15.7929 16.2509C16.1834 15.8604 16.8164 15.8604 17.2069 16.2509L22.2069 21.2509C22.5975 21.6415 22.5975 22.2745 22.2069 22.665C21.8164 23.0555 21.1834 23.0555 20.7929 22.665L15.7929 17.665C15.4024 17.2745 15.4024 16.6415 15.7929 16.2509Z" fill="currentColor" />
</symbol><symbol viewBox="0 0 12 12" fill="none" id="icon-star">
<path d="M5.99919 8.63748L3.92419 9.88748C3.83252 9.94581 3.73669 9.97081 3.63669 9.96247C3.53669 9.95414 3.44919 9.92081 3.37419 9.86248C3.29919 9.80414 3.24085 9.73131 3.19919 9.64398C3.15752 9.55664 3.14919 9.45864 3.17419 9.34998L3.72419 6.98748L1.88669 5.39998C1.80335 5.32498 1.75135 5.23948 1.73069 5.14348C1.71002 5.04748 1.71619 4.95381 1.74919 4.86248C1.78219 4.77114 1.83219 4.69614 1.89919 4.63748C1.96619 4.57881 2.05785 4.54131 2.17419 4.52498L4.59919 4.31248L5.53669 2.08748C5.57835 1.98748 5.64302 1.91248 5.73069 1.86248C5.81835 1.81248 5.90785 1.78748 5.99919 1.78748C6.09052 1.78748 6.18002 1.81248 6.26769 1.86248C6.35535 1.91248 6.42002 1.98748 6.46169 2.08748L7.39919 4.31248L9.82419 4.52498C9.94085 4.54164 10.0325 4.57914 10.0992 4.63748C10.1659 4.69581 10.2159 4.77081 10.2492 4.86248C10.2825 4.95414 10.2889 5.04798 10.2682 5.14398C10.2475 5.23998 10.1954 5.32531 10.1117 5.39998L8.27419 6.98748L8.82419 9.34998C8.84919 9.45831 8.84085 9.55631 8.79919 9.64398C8.75752 9.73164 8.69919 9.80448 8.62419 9.86248C8.54919 9.92048 8.46169 9.95381 8.36169 9.96247C8.26169 9.97114 8.16585 9.94614 8.07419 9.88748L5.99919 8.63748Z" fill="currentColor" />
</symbol></defs><use id="icon-arrow-down-usage" xlink:href="#icon-arrow-down" class="sprite-symbol-usage" /><use id="icon-arrow-right-usage" xlink:href="#icon-arrow-right" class="sprite-symbol-usage" /><use id="icon-chevrone-usage" xlink:href="#icon-chevrone" class="sprite-symbol-usage" /><use id="icon-date-usage" xlink:href="#icon-date" class="sprite-symbol-usage" /><use id="icon-eye-usage" xlink:href="#icon-eye" class="sprite-symbol-usage" /><use id="icon-location-usage" xlink:href="#icon-location" class="sprite-symbol-usage" /><use id="icon-polygon-arrow-usage" xlink:href="#icon-polygon-arrow" class="sprite-symbol-usage" /><use id="icon-search-usage" xlink:href="#icon-search" class="sprite-symbol-usage" /><use id="icon-star-usage" xlink:href="#icon-star" class="sprite-symbol-usage" /></svg>